<?xml version="1.0" encoding="UTF-8" standalone="no"?>
<!DOCTYPE svg PUBLIC "-//W3C//DTD SVG 1.1//EN"
 "http://www.w3.org/Graphics/SVG/1.1/DTD/svg11.dtd">
<!-- Generated by graphviz version 2.43.0 (0)
 -->
<!-- Title: src/Board.cpp Pages: 1 -->
<svg width="275pt" height="140pt"
 viewBox="0.00 0.00 275.00 140.00" xmlns="http://www.w3.org/2000/svg" xmlns:xlink="http://www.w3.org/1999/xlink">
<g id="graph0" class="graph" transform="scale(1 1) rotate(0) translate(4 136)">
<title>src/Board.cpp</title>
<polygon fill="white" stroke="transparent" points="-4,4 -4,-136 271,-136 271,4 -4,4"/>
<!-- Node1 -->
<g id="node1" class="node">
<title>Node1</title>
<g id="a_node1"><a xlink:title="Implementation of the Board class representing the game board.">
<polygon fill="#bfbfbf" stroke="black" points="88,-112.5 88,-131.5 171,-131.5 171,-112.5 88,-112.5"/>
<text text-anchor="middle" x="129.5" y="-119.5" font-family="Helvetica,sans-Serif" font-size="10.00">src/Board.cpp</text>
</a>
</g>
</g>
<!-- Node2 -->
<g id="node2" class="node">
<title>Node2</title>
<g id="a_node2"><a xlink:href="Board_8h.html" target="_top" xlink:title="Represents the game board for Tic&#45;Tac&#45;Toe.">
<polygon fill="white" stroke="black" points="66.5,-56.5 66.5,-75.5 120.5,-75.5 120.5,-56.5 66.5,-56.5"/>
<text text-anchor="middle" x="93.5" y="-63.5" font-family="Helvetica,sans-Serif" font-size="10.00">Board.h</text>
</a>
</g>
</g>
<!-- Node1&#45;&gt;Node2 -->
<g id="edge1" class="edge">
<title>Node1&#45;&gt;Node2</title>
<path fill="none" stroke="midnightblue" d="M123.56,-112.08C118.52,-104.53 111.16,-93.49 104.99,-84.23"/>
<polygon fill="midnightblue" stroke="midnightblue" points="107.79,-82.13 99.33,-75.75 101.97,-86.01 107.79,-82.13"/>
</g>
<!-- Node6 -->
<g id="node6" class="node">
<title>Node6</title>
<g id="a_node6"><a xlink:href="Move_8h.html" target="_top" xlink:title="Header file for the Move class.">
<polygon fill="white" stroke="black" points="139,-56.5 139,-75.5 192,-75.5 192,-56.5 139,-56.5"/>
<text text-anchor="middle" x="165.5" y="-63.5" font-family="Helvetica,sans-Serif" font-size="10.00">Move.h</text>
</a>
</g>
</g>
<!-- Node1&#45;&gt;Node6 -->
<g id="edge5" class="edge">
<title>Node1&#45;&gt;Node6</title>
<path fill="none" stroke="midnightblue" d="M135.44,-112.08C140.48,-104.53 147.84,-93.49 154.01,-84.23"/>
<polygon fill="midnightblue" stroke="midnightblue" points="157.03,-86.01 159.67,-75.75 151.21,-82.13 157.03,-86.01"/>
</g>
<!-- Node3 -->
<g id="node3" class="node">
<title>Node3</title>
<g id="a_node3"><a xlink:href="Cell_8h.html" target="_top" xlink:title="Header file for Cell enumeration.">
<polygon fill="white" stroke="black" points="139.5,-0.5 139.5,-19.5 183.5,-19.5 183.5,-0.5 139.5,-0.5"/>
<text text-anchor="middle" x="161.5" y="-7.5" font-family="Helvetica,sans-Serif" font-size="10.00">Cell.h</text>
</a>
</g>
</g>
<!-- Node2&#45;&gt;Node3 -->
<g id="edge2" class="edge">
<title>Node2&#45;&gt;Node3</title>
<path fill="none" stroke="midnightblue" d="M104.43,-56.32C114.67,-48.18 130.22,-35.84 142.5,-26.09"/>
<polygon fill="midnightblue" stroke="midnightblue" points="144.72,-28.79 150.38,-19.83 140.37,-23.31 144.72,-28.79"/>
</g>
<!-- Node4 -->
<g id="node4" class="node">
<title>Node4</title>
<g id="a_node4"><a xlink:title=" ">
<polygon fill="white" stroke="#bfbfbf" points="0,-0.5 0,-19.5 47,-19.5 47,-0.5 0,-0.5"/>
<text text-anchor="middle" x="23.5" y="-7.5" font-family="Helvetica,sans-Serif" font-size="10.00">vector</text>
</a>
</g>
</g>
<!-- Node2&#45;&gt;Node4 -->
<g id="edge3" class="edge">
<title>Node2&#45;&gt;Node4</title>
<path fill="none" stroke="midnightblue" d="M82.25,-56.32C71.7,-48.18 55.7,-35.84 43.06,-26.09"/>
<polygon fill="midnightblue" stroke="midnightblue" points="45.01,-23.17 34.95,-19.83 40.73,-28.71 45.01,-23.17"/>
</g>
<!-- Node5 -->
<g id="node5" class="node">
<title>Node5</title>
<g id="a_node5"><a xlink:title=" ">
<polygon fill="white" stroke="#bfbfbf" points="65.5,-0.5 65.5,-19.5 121.5,-19.5 121.5,-0.5 65.5,-0.5"/>
<text text-anchor="middle" x="93.5" y="-7.5" font-family="Helvetica,sans-Serif" font-size="10.00">optional</text>
</a>
</g>
</g>
<!-- Node2&#45;&gt;Node5 -->
<g id="edge4" class="edge">
<title>Node2&#45;&gt;Node5</title>
<path fill="none" stroke="midnightblue" d="M93.5,-56.08C93.5,-49.01 93.5,-38.86 93.5,-29.99"/>
<polygon fill="midnightblue" stroke="midnightblue" points="97,-29.75 93.5,-19.75 90,-29.75 97,-29.75"/>
</g>
<!-- Node6&#45;&gt;Node3 -->
<g id="edge7" class="edge">
<title>Node6&#45;&gt;Node3</title>
<path fill="none" stroke="midnightblue" d="M164.84,-56.08C164.32,-49.01 163.56,-38.86 162.91,-29.99"/>
<polygon fill="midnightblue" stroke="midnightblue" points="166.38,-29.47 162.15,-19.75 159.4,-29.98 166.38,-29.47"/>
</g>
<!-- Node7 -->
<g id="node7" class="node">
<title>Node7</title>
<g id="a_node7"><a xlink:href="Position_8h.html" target="_top" xlink:title="Header file for the Position class.">
<polygon fill="white" stroke="black" points="202,-0.5 202,-19.5 267,-19.5 267,-0.5 202,-0.5"/>
<text text-anchor="middle" x="234.5" y="-7.5" font-family="Helvetica,sans-Serif" font-size="10.00">Position.h</text>
</a>
</g>
</g>
<!-- Node6&#45;&gt;Node7 -->
<g id="edge6" class="edge">
<title>Node6&#45;&gt;Node7</title>
<path fill="none" stroke="midnightblue" d="M176.59,-56.32C186.99,-48.18 202.76,-35.84 215.22,-26.09"/>
<polygon fill="midnightblue" stroke="midnightblue" points="217.49,-28.75 223.21,-19.83 213.18,-23.24 217.49,-28.75"/>
</g>
</g>
</svg>
