<?xml version="1.0" encoding="UTF-8" standalone="no"?>
<!DOCTYPE svg PUBLIC "-//W3C//DTD SVG 1.1//EN"
 "http://www.w3.org/Graphics/SVG/1.1/DTD/svg11.dtd">
<!-- Generated by graphviz version 2.43.0 (0)
 -->
<!-- Title: ConsoleInput Pages: 1 -->
<svg width="166pt" height="95pt"
 viewBox="0.00 0.00 166.00 95.00" xmlns="http://www.w3.org/2000/svg" xmlns:xlink="http://www.w3.org/1999/xlink">
<g id="graph0" class="graph" transform="scale(1 1) rotate(0) translate(4 91)">
<title>ConsoleInput</title>
<polygon fill="white" stroke="transparent" points="-4,4 -4,-91 162,-91 162,4 -4,4"/>
<!-- Node1 -->
<g id="node1" class="node">
<title>Node1</title>
<g id="a_node1"><a xlink:title="Handles input from the console.">
<polygon fill="#bfbfbf" stroke="black" points="44,-0.5 44,-19.5 124,-19.5 124,-0.5 44,-0.5"/>
<text text-anchor="middle" x="84" y="-7.5" font-family="Helvetica,sans-Serif" font-size="10.00">ConsoleInput</text>
</a>
</g>
</g>
<!-- Node2 -->
<g id="node2" class="node">
<title>Node2</title>
<g id="a_node2"><a xlink:href="classInputHandler.html" target="_top" xlink:title="Interface for input handling.">
<polygon fill="white" stroke="black" points="0,-67.5 0,-86.5 80,-86.5 80,-67.5 0,-67.5"/>
<text text-anchor="middle" x="40" y="-74.5" font-family="Helvetica,sans-Serif" font-size="10.00">InputHandler</text>
</a>
</g>
</g>
<!-- Node2&#45;&gt;Node1 -->
<g id="edge1" class="edge">
<title>Node2&#45;&gt;Node1</title>
<path fill="none" stroke="midnightblue" d="M51.57,-58.9C60.12,-46.27 71.41,-29.6 78.16,-19.63"/>
<polygon fill="midnightblue" stroke="midnightblue" points="48.64,-56.99 45.93,-67.23 54.44,-60.91 48.64,-56.99"/>
</g>
<!-- Node3 -->
<g id="node3" class="node">
<title>Node3</title>
<g id="a_node3"><a xlink:href="classValidator.html" target="_top" xlink:title="Validates user input.">
<polygon fill="white" stroke="black" points="98,-67.5 98,-86.5 158,-86.5 158,-67.5 98,-67.5"/>
<text text-anchor="middle" x="128" y="-74.5" font-family="Helvetica,sans-Serif" font-size="10.00">Validator</text>
</a>
</g>
</g>
<!-- Node3&#45;&gt;Node1 -->
<g id="edge2" class="edge">
<title>Node3&#45;&gt;Node1</title>
<path fill="none" stroke="#9a32cd" stroke-dasharray="5,2" d="M116.43,-58.9C107.88,-46.27 96.59,-29.6 89.84,-19.63"/>
<polygon fill="#9a32cd" stroke="#9a32cd" points="113.56,-60.91 122.07,-67.23 119.36,-56.99 113.56,-60.91"/>
<text text-anchor="middle" x="131.5" y="-41" font-family="Helvetica,sans-Serif" font-size="10.00"> validator</text>
</g>
</g>
</svg>
