<?xml version="1.0" encoding="UTF-8" standalone="no"?>
<!DOCTYPE svg PUBLIC "-//W3C//DTD SVG 1.1//EN"
 "http://www.w3.org/Graphics/SVG/1.1/DTD/svg11.dtd">
<!-- Generated by graphviz version 2.43.0 (0)
 -->
<!-- Title: Board::isValidPosition Pages: 1 -->
<svg width="799pt" height="564pt"
 viewBox="0.00 0.00 799.00 564.00" xmlns="http://www.w3.org/2000/svg" xmlns:xlink="http://www.w3.org/1999/xlink">
<g id="graph0" class="graph" transform="scale(1 1) rotate(0) translate(4 560)">
<title>Board::isValidPosition</title>
<polygon fill="white" stroke="transparent" points="-4,4 -4,-560 795,-560 795,4 -4,4"/>
<!-- Node1 -->
<g id="node1" class="node">
<title>Node1</title>
<g id="a_node1"><a xlink:title="Checks if the given position is valid on the board.">
<polygon fill="#bfbfbf" stroke="black" points="669,-132.5 669,-151.5 791,-151.5 791,-132.5 669,-132.5"/>
<text text-anchor="middle" x="730" y="-139.5" font-family="Helvetica,sans-Serif" font-size="10.00">Board::isValidPosition</text>
</a>
</g>
</g>
<!-- Node2 -->
<g id="node2" class="node">
<title>Node2</title>
<g id="a_node2"><a xlink:href="classBoard.html#ab60a1f5210c03763122808df3f36e928" target="_top" xlink:title="Returns the cell value at the specified position.">
<polygon fill="white" stroke="black" points="547,-164.5 547,-183.5 633,-183.5 633,-164.5 547,-164.5"/>
<text text-anchor="middle" x="590" y="-171.5" font-family="Helvetica,sans-Serif" font-size="10.00">Board::getCell</text>
</a>
</g>
</g>
<!-- Node1&#45;&gt;Node2 -->
<g id="edge1" class="edge">
<title>Node1&#45;&gt;Node2</title>
<path fill="none" stroke="midnightblue" d="M678.21,-153.78C663.03,-157.3 646.59,-161.11 632.11,-164.47"/>
<polygon fill="midnightblue" stroke="midnightblue" points="679.02,-157.18 687.97,-151.51 677.44,-150.36 679.02,-157.18"/>
</g>
<!-- Node11 -->
<g id="node11" class="node">
<title>Node11</title>
<g id="a_node11"><a xlink:href="classBoard.html#a3afa93ba72dd08cfdcbf264f9b077ef9" target="_top" xlink:title="Checks if a given move is valid.">
<polygon fill="white" stroke="black" points="377,-38.5 377,-57.5 487,-57.5 487,-38.5 377,-38.5"/>
<text text-anchor="middle" x="432" y="-45.5" font-family="Helvetica,sans-Serif" font-size="10.00">Board::isMoveValid</text>
</a>
</g>
</g>
<!-- Node1&#45;&gt;Node11 -->
<g id="edge18" class="edge">
<title>Node1&#45;&gt;Node11</title>
<path fill="none" stroke="midnightblue" d="M694.36,-128.97C651.62,-113.15 576.56,-86.22 511,-67 499.5,-63.63 486.92,-60.38 475.29,-57.55"/>
<polygon fill="midnightblue" stroke="midnightblue" points="693.15,-132.25 703.74,-132.46 695.58,-125.69 693.15,-132.25"/>
</g>
<!-- Node15 -->
<g id="node15" class="node">
<title>Node15</title>
<g id="a_node15"><a xlink:href="test__ai_8cpp.html#af47d2384ade8be395f18a160132467eb" target="_top" xlink:title="Test that Easy AI selects a valid empty cell on the board.">
<polygon fill="white" stroke="black" points="411.5,-0.5 411.5,-19.5 452.5,-19.5 452.5,-0.5 411.5,-0.5"/>
<text text-anchor="middle" x="432" y="-7.5" font-family="Helvetica,sans-Serif" font-size="10.00">TEST</text>
</a>
</g>
</g>
<!-- Node1&#45;&gt;Node15 -->
<g id="edge29" class="edge">
<title>Node1&#45;&gt;Node15</title>
<path fill="none" stroke="midnightblue" d="M709.75,-126.05C691.03,-111.12 661.36,-88.94 633,-74 581.87,-47.06 566.28,-45.87 511,-29 491.4,-23.02 468.59,-17.64 452.72,-14.15"/>
<polygon fill="midnightblue" stroke="midnightblue" points="707.55,-128.78 717.53,-132.35 711.96,-123.34 707.55,-128.78"/>
</g>
<!-- Node16 -->
<g id="node16" class="node">
<title>Node16</title>
<g id="a_node16"><a xlink:href="classBoard.html#adcafb7f3909732ea0043c829b91e7e2d" target="_top" xlink:title="Sets the cell value at the specified position.">
<polygon fill="white" stroke="black" points="547.5,-397.5 547.5,-416.5 632.5,-416.5 632.5,-397.5 547.5,-397.5"/>
<text text-anchor="middle" x="590" y="-404.5" font-family="Helvetica,sans-Serif" font-size="10.00">Board::setCell</text>
</a>
</g>
</g>
<!-- Node1&#45;&gt;Node16 -->
<g id="edge19" class="edge">
<title>Node1&#45;&gt;Node16</title>
<path fill="none" stroke="midnightblue" d="M719.15,-160.91C691.89,-213.27 616.13,-358.75 595.98,-397.45"/>
<polygon fill="midnightblue" stroke="midnightblue" points="722.41,-162.23 723.92,-151.75 716.2,-159 722.41,-162.23"/>
</g>
<!-- Node3 -->
<g id="node3" class="node">
<title>Node3</title>
<g id="a_node3"><a xlink:href="classEasyAIDifficulty.html#aae7ec21eaead255e0abf33fb93d6dbc3" target="_top" xlink:title="Calculates a random valid move on the board.">
<polygon fill="white" stroke="black" points="360.5,-203 360.5,-233 503.5,-233 503.5,-203 360.5,-203"/>
<text text-anchor="start" x="368.5" y="-221" font-family="Helvetica,sans-Serif" font-size="10.00">EasyAIDifficulty::calculate</text>
<text text-anchor="middle" x="432" y="-210" font-family="Helvetica,sans-Serif" font-size="10.00">BestMove</text>
</a>
</g>
</g>
<!-- Node2&#45;&gt;Node3 -->
<g id="edge2" class="edge">
<title>Node2&#45;&gt;Node3</title>
<path fill="none" stroke="midnightblue" d="M545.35,-186.31C527.06,-191.47 505.63,-197.51 486.41,-202.93"/>
<polygon fill="midnightblue" stroke="midnightblue" points="546.48,-189.63 555.15,-183.55 544.58,-182.89 546.48,-189.63"/>
</g>
<!-- Node4 -->
<g id="node4" class="node">
<title>Node4</title>
<g id="a_node4"><a xlink:href="classMediumAIDifficulty.html#a1e2b191a320ee5315849174ca28330fd" target="_top" xlink:title="Calculates the best move for the AI.">
<polygon fill="white" stroke="black" points="187.5,-203 187.5,-233 303.5,-233 303.5,-203 187.5,-203"/>
<text text-anchor="start" x="195.5" y="-221" font-family="Helvetica,sans-Serif" font-size="10.00">MediumAIDifficulty</text>
<text text-anchor="middle" x="245.5" y="-210" font-family="Helvetica,sans-Serif" font-size="10.00">::calculateBestMove</text>
</a>
</g>
</g>
<!-- Node2&#45;&gt;Node4 -->
<g id="edge5" class="edge">
<title>Node2&#45;&gt;Node4</title>
<path fill="none" stroke="midnightblue" d="M536.44,-176.39C488.45,-179.05 415.66,-184.33 353,-194 336.89,-196.49 319.59,-200.01 303.71,-203.59"/>
<polygon fill="midnightblue" stroke="midnightblue" points="536.79,-179.87 546.59,-175.84 536.41,-172.88 536.79,-179.87"/>
</g>
<!-- Node5 -->
<g id="node5" class="node">
<title>Node5</title>
<g id="a_node5"><a xlink:href="classHardAIDifficulty.html#ab6ccc0f386c80895c18b196417c1e21b" target="_top" xlink:title="Calculates the optimal move using the Minimax algorithm.">
<polygon fill="white" stroke="black" points="174,-373 174,-403 317,-403 317,-373 174,-373"/>
<text text-anchor="start" x="182" y="-391" font-family="Helvetica,sans-Serif" font-size="10.00">HardAIDifficulty::calculate</text>
<text text-anchor="middle" x="245.5" y="-380" font-family="Helvetica,sans-Serif" font-size="10.00">BestMove</text>
</a>
</g>
</g>
<!-- Node2&#45;&gt;Node5 -->
<g id="edge4" class="edge">
<title>Node2&#45;&gt;Node5</title>
<path fill="none" stroke="midnightblue" d="M580.36,-192.98C568.34,-217.22 544.23,-258.68 511,-281 450.96,-321.33 419.48,-291.49 353,-320 320.34,-334.01 286.37,-357.52 265.82,-372.89"/>
<polygon fill="midnightblue" stroke="midnightblue" points="583.62,-194.29 584.77,-183.76 577.3,-191.27 583.62,-194.29"/>
</g>
<!-- Node6 -->
<g id="node6" class="node">
<title>Node6</title>
<g id="a_node6"><a xlink:href="classConsoleOutput.html#abb047ccca1a05a6418e4ce11423e2d6c" target="_top" xlink:title="Displays the current state of the board.">
<polygon fill="white" stroke="black" points="353,-252.5 353,-271.5 511,-271.5 511,-252.5 353,-252.5"/>
<text text-anchor="middle" x="432" y="-259.5" font-family="Helvetica,sans-Serif" font-size="10.00">ConsoleOutput::displayBoard</text>
</a>
</g>
</g>
<!-- Node2&#45;&gt;Node6 -->
<g id="edge6" class="edge">
<title>Node2&#45;&gt;Node6</title>
<path fill="none" stroke="midnightblue" d="M574.23,-191.17C559.7,-206.97 536.11,-229.88 511,-243 503.59,-246.87 495.37,-249.97 487.12,-252.45"/>
<polygon fill="midnightblue" stroke="midnightblue" points="576.9,-193.43 580.96,-183.65 571.68,-188.77 576.9,-193.43"/>
</g>
<!-- Node7 -->
<g id="node7" class="node">
<title>Node7</title>
<g id="a_node7"><a xlink:href="classMediumAIDifficulty.html#a46fede497d81884257211231502886f6" target="_top" xlink:title="Finds a winning move for the given marker if available.">
<polygon fill="white" stroke="black" points="377,-329 377,-359 487,-359 487,-329 377,-329"/>
<text text-anchor="start" x="385" y="-347" font-family="Helvetica,sans-Serif" font-size="10.00">MediumAIDifficulty</text>
<text text-anchor="middle" x="432" y="-336" font-family="Helvetica,sans-Serif" font-size="10.00">::findWinningMove</text>
</a>
</g>
</g>
<!-- Node2&#45;&gt;Node7 -->
<g id="edge7" class="edge">
<title>Node2&#45;&gt;Node7</title>
<path fill="none" stroke="midnightblue" d="M583.05,-193.29C572.91,-223.13 549.55,-280.54 511,-314 503.99,-320.09 495.61,-325 486.98,-328.96"/>
<polygon fill="midnightblue" stroke="midnightblue" points="586.42,-194.23 586.19,-183.64 579.77,-192.06 586.42,-194.23"/>
</g>
<!-- Node8 -->
<g id="node8" class="node">
<title>Node8</title>
<g id="a_node8"><a xlink:href="classAIPlayer.html#a331e307caf07205cafee1ed76494a0a0" target="_top" xlink:title="Finds a winning move in 3D space.">
<polygon fill="white" stroke="black" points="358,-76.5 358,-95.5 506,-95.5 506,-76.5 358,-76.5"/>
<text text-anchor="middle" x="432" y="-83.5" font-family="Helvetica,sans-Serif" font-size="10.00">AIPlayer::findWinningMove</text>
</a>
</g>
</g>
<!-- Node2&#45;&gt;Node8 -->
<g id="edge9" class="edge">
<title>Node2&#45;&gt;Node8</title>
<path fill="none" stroke="midnightblue" d="M573.66,-156.64C559.04,-141.15 535.65,-118.96 511,-106 502.83,-101.71 493.69,-98.3 484.62,-95.6"/>
<polygon fill="midnightblue" stroke="midnightblue" points="571.13,-159.06 580.47,-164.05 576.28,-154.32 571.13,-159.06"/>
</g>
<!-- Node10 -->
<g id="node10" class="node">
<title>Node10</title>
<g id="a_node10"><a xlink:href="classControlledAIPlayer.html#a83c1577618338511ad126759142e061f" target="_top" xlink:title="Returns the first available empty cell as the move.">
<polygon fill="white" stroke="black" points="378.5,-115 378.5,-145 485.5,-145 485.5,-115 378.5,-115"/>
<text text-anchor="start" x="386.5" y="-133" font-family="Helvetica,sans-Serif" font-size="10.00">ControlledAIPlayer</text>
<text text-anchor="middle" x="432" y="-122" font-family="Helvetica,sans-Serif" font-size="10.00">::getMove</text>
</a>
</g>
</g>
<!-- Node2&#45;&gt;Node10 -->
<g id="edge11" class="edge">
<title>Node2&#45;&gt;Node10</title>
<path fill="none" stroke="midnightblue" d="M545.47,-161.72C526.87,-156.48 504.99,-150.31 485.5,-144.81"/>
<polygon fill="midnightblue" stroke="midnightblue" points="544.58,-165.11 555.15,-164.45 546.48,-158.37 544.58,-165.11"/>
</g>
<!-- Node2&#45;&gt;Node11 -->
<g id="edge12" class="edge">
<title>Node2&#45;&gt;Node11</title>
<path fill="none" stroke="midnightblue" d="M580.38,-155C568.36,-130.75 544.26,-89.27 511,-67 503.82,-62.19 495.54,-58.6 487.12,-55.91"/>
<polygon fill="midnightblue" stroke="midnightblue" points="577.31,-156.71 584.78,-164.23 583.63,-153.7 577.31,-156.71"/>
</g>
<!-- Node14 -->
<g id="node14" class="node">
<title>Node14</title>
<g id="a_node14"><a xlink:href="classHardAIDifficulty.html#a878b5061c2b5d7397f2bfb33b358a97a" target="_top" xlink:title="Minimax algorithm implementation.">
<polygon fill="white" stroke="black" points="360.5,-378.5 360.5,-397.5 503.5,-397.5 503.5,-378.5 360.5,-378.5"/>
<text text-anchor="middle" x="432" y="-385.5" font-family="Helvetica,sans-Serif" font-size="10.00">HardAIDifficulty::minimax</text>
</a>
</g>
</g>
<!-- Node2&#45;&gt;Node14 -->
<g id="edge15" class="edge">
<title>Node2&#45;&gt;Node14</title>
<path fill="none" stroke="midnightblue" d="M586.99,-193.89C581.88,-233.48 564.76,-322.36 511,-369 506.58,-372.84 501.51,-375.92 496.12,-378.41"/>
<polygon fill="midnightblue" stroke="midnightblue" points="590.47,-194.23 588.15,-183.89 583.52,-193.42 590.47,-194.23"/>
</g>
<!-- Node2&#45;&gt;Node15 -->
<g id="edge17" class="edge">
<title>Node2&#45;&gt;Node15</title>
<path fill="none" stroke="midnightblue" d="M584.14,-154.73C575.19,-123.37 553.08,-61.53 511,-29 494.13,-15.96 469.56,-11.72 452.53,-10.42"/>
<polygon fill="midnightblue" stroke="midnightblue" points="580.78,-155.71 586.76,-164.45 587.54,-153.89 580.78,-155.71"/>
</g>
<!-- Node3&#45;&gt;Node4 -->
<g id="edge3" class="edge">
<title>Node3&#45;&gt;Node4</title>
<path fill="none" stroke="midnightblue" d="M350.21,-218C334.48,-218 318.31,-218 303.55,-218"/>
<polygon fill="midnightblue" stroke="midnightblue" points="350.46,-221.5 360.46,-218 350.46,-214.5 350.46,-221.5"/>
</g>
<!-- Node7&#45;&gt;Node4 -->
<g id="edge8" class="edge">
<title>Node7&#45;&gt;Node4</title>
<path fill="none" stroke="midnightblue" d="M400.3,-323.03C363.1,-297.63 301.34,-255.45 268.55,-233.06"/>
<polygon fill="midnightblue" stroke="midnightblue" points="398.51,-326.05 408.74,-328.8 402.46,-320.27 398.51,-326.05"/>
</g>
<!-- Node9 -->
<g id="node9" class="node">
<title>Node9</title>
<g id="a_node9"><a xlink:href="classAIPlayer.html#a4f320821c2e421656da6769248aff226" target="_top" xlink:title="Gets the next move from the AI (3D mode).">
<polygon fill="white" stroke="black" points="186,-76.5 186,-95.5 305,-95.5 305,-76.5 186,-76.5"/>
<text text-anchor="middle" x="245.5" y="-83.5" font-family="Helvetica,sans-Serif" font-size="10.00">AIPlayer::get3DMove</text>
</a>
</g>
</g>
<!-- Node8&#45;&gt;Node9 -->
<g id="edge10" class="edge">
<title>Node8&#45;&gt;Node9</title>
<path fill="none" stroke="midnightblue" d="M347.47,-86C333.16,-86 318.58,-86 305.1,-86"/>
<polygon fill="midnightblue" stroke="midnightblue" points="347.82,-89.5 357.82,-86 347.82,-82.5 347.82,-89.5"/>
</g>
<!-- Node12 -->
<g id="node12" class="node">
<title>Node12</title>
<g id="a_node12"><a xlink:href="classHumanPlayer.html#aa4652eef1646acfae11c34fd9d024d41" target="_top" xlink:title="Gets the player&#39;s move in classic mode.">
<polygon fill="white" stroke="black" points="180,-38.5 180,-57.5 311,-57.5 311,-38.5 180,-38.5"/>
<text text-anchor="middle" x="245.5" y="-45.5" font-family="Helvetica,sans-Serif" font-size="10.00">HumanPlayer::getMove</text>
</a>
</g>
</g>
<!-- Node11&#45;&gt;Node12 -->
<g id="edge13" class="edge">
<title>Node11&#45;&gt;Node12</title>
<path fill="none" stroke="midnightblue" d="M366.57,-48C348.64,-48 329.16,-48 311.22,-48"/>
<polygon fill="midnightblue" stroke="midnightblue" points="366.64,-51.5 376.64,-48 366.64,-44.5 366.64,-51.5"/>
</g>
<!-- Node13 -->
<g id="node13" class="node">
<title>Node13</title>
<g id="a_node13"><a xlink:href="test__board_8cpp.html#a4a50edbf576ad576ba6e93c54f12aaa8" target="_top" xlink:title="Test validation of moves on the board.">
<polygon fill="white" stroke="black" points="225,-0.5 225,-19.5 266,-19.5 266,-0.5 225,-0.5"/>
<text text-anchor="middle" x="245.5" y="-7.5" font-family="Helvetica,sans-Serif" font-size="10.00">TEST</text>
</a>
</g>
</g>
<!-- Node11&#45;&gt;Node13 -->
<g id="edge14" class="edge">
<title>Node11&#45;&gt;Node13</title>
<path fill="none" stroke="midnightblue" d="M374.3,-36.32C337.43,-28.73 291.61,-19.29 266.06,-14.03"/>
<polygon fill="midnightblue" stroke="midnightblue" points="373.94,-39.82 384.44,-38.41 375.35,-32.97 373.94,-39.82"/>
</g>
<!-- Node14&#45;&gt;Node5 -->
<g id="edge16" class="edge">
<title>Node14&#45;&gt;Node5</title>
<path fill="none" stroke="midnightblue" d="M350.34,-388C339.24,-388 327.91,-388 317,-388"/>
<polygon fill="midnightblue" stroke="midnightblue" points="350.46,-391.5 360.46,-388 350.46,-384.5 350.46,-391.5"/>
</g>
<!-- Node16&#45;&gt;Node5 -->
<g id="edge20" class="edge">
<title>Node16&#45;&gt;Node5</title>
<path fill="none" stroke="midnightblue" d="M537,-409.63C489.1,-411.42 416.12,-412.59 353,-407 341.31,-405.97 328.98,-404.3 317.01,-402.38"/>
<polygon fill="midnightblue" stroke="midnightblue" points="537.27,-413.12 547.12,-409.22 536.99,-406.12 537.27,-413.12"/>
</g>
<!-- Node16&#45;&gt;Node7 -->
<g id="edge21" class="edge">
<title>Node16&#45;&gt;Node7</title>
<path fill="none" stroke="midnightblue" d="M561.95,-392.64C547.14,-385.07 528.32,-375.95 511,-369 502.29,-365.5 492.89,-362.15 483.73,-359.09"/>
<polygon fill="midnightblue" stroke="midnightblue" points="560.56,-395.86 571.05,-397.34 563.78,-389.64 560.56,-395.86"/>
</g>
<!-- Node16&#45;&gt;Node14 -->
<g id="edge22" class="edge">
<title>Node16&#45;&gt;Node14</title>
<path fill="none" stroke="midnightblue" d="M537.13,-400.68C526.36,-399.37 514.84,-397.97 503.53,-396.59"/>
<polygon fill="midnightblue" stroke="midnightblue" points="536.85,-404.17 547.19,-401.91 537.69,-397.22 536.85,-404.17"/>
</g>
<!-- Node17 -->
<g id="node17" class="node">
<title>Node17</title>
<g id="a_node17"><a xlink:href="classGame.html#ab1e9b447334f6ec64ad91df3e60574f1" target="_top" xlink:title="Processes a single turn for a player in classic mode.">
<polygon fill="white" stroke="black" points="362,-492.5 362,-511.5 502,-511.5 502,-492.5 362,-492.5"/>
<text text-anchor="middle" x="432" y="-499.5" font-family="Helvetica,sans-Serif" font-size="10.00">Game::processPlayerTurn</text>
</a>
</g>
</g>
<!-- Node16&#45;&gt;Node17 -->
<g id="edge23" class="edge">
<title>Node16&#45;&gt;Node17</title>
<path fill="none" stroke="midnightblue" d="M575.51,-424.83C561.35,-442.29 537.48,-468.34 511,-483 504.05,-486.85 496.33,-489.92 488.52,-492.38"/>
<polygon fill="midnightblue" stroke="midnightblue" points="578.56,-426.62 582,-416.59 573.06,-422.29 578.56,-426.62"/>
</g>
<!-- Node22 -->
<g id="node22" class="node">
<title>Node22</title>
<g id="a_node22"><a xlink:href="test__ai_8cpp.html#a0750ba58bf41ace13f9f215bad942a4d" target="_top" xlink:title="Test that Medium AI blocks the opponent&#39;s immediate winning move.">
<polygon fill="white" stroke="black" points="411.5,-454.5 411.5,-473.5 452.5,-473.5 452.5,-454.5 411.5,-454.5"/>
<text text-anchor="middle" x="432" y="-461.5" font-family="Helvetica,sans-Serif" font-size="10.00">TEST</text>
</a>
</g>
</g>
<!-- Node16&#45;&gt;Node22 -->
<g id="edge28" class="edge">
<title>Node16&#45;&gt;Node22</title>
<path fill="none" stroke="midnightblue" d="M558.68,-420.68C544.35,-426.92 526.94,-434.19 511,-440 491.43,-447.13 468.62,-453.98 452.74,-458.53"/>
<polygon fill="midnightblue" stroke="midnightblue" points="560.3,-423.79 568.04,-416.55 557.48,-417.38 560.3,-423.79"/>
</g>
<!-- Node18 -->
<g id="node18" class="node">
<title>Node18</title>
<g id="a_node18"><a xlink:href="classGame.html#a3d9b98f7c4a96ecf578f75b96c9f0e90" target="_top" xlink:title="Starts the game loop.">
<polygon fill="white" stroke="black" points="208.5,-492.5 208.5,-511.5 282.5,-511.5 282.5,-492.5 208.5,-492.5"/>
<text text-anchor="middle" x="245.5" y="-499.5" font-family="Helvetica,sans-Serif" font-size="10.00">Game::start</text>
</a>
</g>
</g>
<!-- Node17&#45;&gt;Node18 -->
<g id="edge24" class="edge">
<title>Node17&#45;&gt;Node18</title>
<path fill="none" stroke="midnightblue" d="M351.58,-502C327.57,-502 302.39,-502 282.69,-502"/>
<polygon fill="midnightblue" stroke="midnightblue" points="351.77,-505.5 361.77,-502 351.77,-498.5 351.77,-505.5"/>
</g>
<!-- Node19 -->
<g id="node19" class="node">
<title>Node19</title>
<g id="a_node19"><a xlink:href="main_8cpp.html#ae66f6b31b5ad750f1fe042a706a4e3d4" target="_top" xlink:title="Main function &#45; entry point of the application.">
<polygon fill="white" stroke="black" points="48.5,-536.5 48.5,-555.5 89.5,-555.5 89.5,-536.5 48.5,-536.5"/>
<text text-anchor="middle" x="69" y="-543.5" font-family="Helvetica,sans-Serif" font-size="10.00">main</text>
</a>
</g>
</g>
<!-- Node18&#45;&gt;Node19 -->
<g id="edge25" class="edge">
<title>Node18&#45;&gt;Node19</title>
<path fill="none" stroke="midnightblue" d="M198.26,-513.66C162.94,-522.57 116.03,-534.39 89.84,-541"/>
<polygon fill="midnightblue" stroke="midnightblue" points="199.5,-516.96 208.34,-511.12 197.79,-510.17 199.5,-516.96"/>
</g>
<!-- Node20 -->
<g id="node20" class="node">
<title>Node20</title>
<g id="a_node20"><a xlink:href="classIntegrationTest.html#acbc0b497e7b1195c0f595813021a3a7a" target="_top" xlink:title="Simulates a game with specified human moves against controlled AI.">
<polygon fill="white" stroke="black" points="0,-487 0,-517 138,-517 138,-487 0,-487"/>
<text text-anchor="start" x="8" y="-505" font-family="Helvetica,sans-Serif" font-size="10.00">IntegrationTest::simulate</text>
<text text-anchor="middle" x="69" y="-494" font-family="Helvetica,sans-Serif" font-size="10.00">Turns</text>
</a>
</g>
</g>
<!-- Node18&#45;&gt;Node20 -->
<g id="edge26" class="edge">
<title>Node18&#45;&gt;Node20</title>
<path fill="none" stroke="midnightblue" d="M198.2,-502C179.82,-502 158.3,-502 138.2,-502"/>
<polygon fill="midnightblue" stroke="midnightblue" points="198.34,-505.5 208.34,-502 198.34,-498.5 198.34,-505.5"/>
</g>
<!-- Node21 -->
<g id="node21" class="node">
<title>Node21</title>
<g id="a_node21"><a xlink:href="test__3d__game_8cpp.html#a269fa077455455cef649c722293e9289" target="_top" xlink:title="Test case for winning the 3D game by completing a space diagonal.">
<polygon fill="white" stroke="black" points="48.5,-448.5 48.5,-467.5 89.5,-467.5 89.5,-448.5 48.5,-448.5"/>
<text text-anchor="middle" x="69" y="-455.5" font-family="Helvetica,sans-Serif" font-size="10.00">TEST</text>
</a>
</g>
</g>
<!-- Node18&#45;&gt;Node21 -->
<g id="edge27" class="edge">
<title>Node18&#45;&gt;Node21</title>
<path fill="none" stroke="midnightblue" d="M198.26,-490.34C162.94,-481.43 116.03,-469.61 89.84,-463"/>
<polygon fill="midnightblue" stroke="midnightblue" points="197.79,-493.83 208.34,-492.88 199.5,-487.04 197.79,-493.83"/>
</g>
</g>
</svg>
