<?xml version="1.0" encoding="UTF-8" standalone="no"?>
<!DOCTYPE svg PUBLIC "-//W3C//DTD SVG 1.1//EN"
 "http://www.w3.org/Graphics/SVG/1.1/DTD/svg11.dtd">
<!-- Generated by graphviz version 2.43.0 (0)
 -->
<!-- Title: GameRules::checkWin Pages: 1 -->
<svg width="776pt" height="198pt"
 viewBox="0.00 0.00 776.00 198.00" xmlns="http://www.w3.org/2000/svg" xmlns:xlink="http://www.w3.org/1999/xlink">
<g id="graph0" class="graph" transform="scale(1 1) rotate(0) translate(4 194)">
<title>GameRules::checkWin</title>
<polygon fill="white" stroke="transparent" points="-4,4 -4,-194 772,-194 772,4 -4,4"/>
<!-- Node1 -->
<g id="node1" class="node">
<title>Node1</title>
<g id="a_node1"><a xlink:title="Checks if the specified player has won.">
<polygon fill="#bfbfbf" stroke="black" points="642,-82.5 642,-101.5 768,-101.5 768,-82.5 642,-82.5"/>
<text text-anchor="middle" x="705" y="-89.5" font-family="Helvetica,sans-Serif" font-size="10.00">GameRules::checkWin</text>
</a>
</g>
</g>
<!-- Node2 -->
<g id="node2" class="node">
<title>Node2</title>
<g id="a_node2"><a xlink:href="classGameRules.html#a6d5f3424222807a9998d4c022f668b3d" target="_top" xlink:title="Checks if the game ended in a draw.">
<polygon fill="white" stroke="black" points="468,-164.5 468,-183.5 601,-183.5 601,-164.5 468,-164.5"/>
<text text-anchor="middle" x="534.5" y="-171.5" font-family="Helvetica,sans-Serif" font-size="10.00">GameRules::checkDraw</text>
</a>
</g>
</g>
<!-- Node1&#45;&gt;Node2 -->
<g id="edge1" class="edge">
<title>Node1&#45;&gt;Node2</title>
<path fill="none" stroke="midnightblue" d="M683.48,-107.88C664.36,-122 634.57,-142.33 606,-155 597.66,-158.7 588.43,-161.82 579.48,-164.4"/>
<polygon fill="midnightblue" stroke="midnightblue" points="685.83,-110.49 691.72,-101.69 681.62,-104.9 685.83,-110.49"/>
</g>
<!-- Node4 -->
<g id="node4" class="node">
<title>Node4</title>
<g id="a_node4"><a xlink:href="classGame.html#aea417fe687fffaf5d634b84f760b4e14" target="_top" xlink:title="Checks and updates the game state in classic mode.">
<polygon fill="white" stroke="black" points="467,-126.5 467,-145.5 602,-145.5 602,-126.5 467,-126.5"/>
<text text-anchor="middle" x="534.5" y="-133.5" font-family="Helvetica,sans-Serif" font-size="10.00">Game::checkGameState</text>
</a>
</g>
</g>
<!-- Node1&#45;&gt;Node4 -->
<g id="edge3" class="edge">
<title>Node1&#45;&gt;Node4</title>
<path fill="none" stroke="midnightblue" d="M657.45,-104.15C630.49,-111.2 597.04,-119.93 571.99,-126.47"/>
<polygon fill="midnightblue" stroke="midnightblue" points="658.65,-107.46 667.44,-101.55 656.88,-100.69 658.65,-107.46"/>
</g>
<!-- Node10 -->
<g id="node10" class="node">
<title>Node10</title>
<g id="a_node10"><a xlink:href="classMediumAIDifficulty.html#a46fede497d81884257211231502886f6" target="_top" xlink:title="Finds a winning move for the given marker if available.">
<polygon fill="white" stroke="black" points="479.5,-77 479.5,-107 589.5,-107 589.5,-77 479.5,-77"/>
<text text-anchor="start" x="487.5" y="-95" font-family="Helvetica,sans-Serif" font-size="10.00">MediumAIDifficulty</text>
<text text-anchor="middle" x="534.5" y="-84" font-family="Helvetica,sans-Serif" font-size="10.00">::findWinningMove</text>
</a>
</g>
</g>
<!-- Node1&#45;&gt;Node10 -->
<g id="edge9" class="edge">
<title>Node1&#45;&gt;Node10</title>
<path fill="none" stroke="midnightblue" d="M631.61,-92C617.57,-92 603.08,-92 589.74,-92"/>
<polygon fill="midnightblue" stroke="midnightblue" points="631.74,-95.5 641.74,-92 631.74,-88.5 631.74,-95.5"/>
</g>
<!-- Node12 -->
<g id="node12" class="node">
<title>Node12</title>
<g id="a_node12"><a xlink:href="classHardAIDifficulty.html#a878b5061c2b5d7397f2bfb33b358a97a" target="_top" xlink:title="Minimax algorithm implementation.">
<polygon fill="white" stroke="black" points="463,-38.5 463,-57.5 606,-57.5 606,-38.5 463,-38.5"/>
<text text-anchor="middle" x="534.5" y="-45.5" font-family="Helvetica,sans-Serif" font-size="10.00">HardAIDifficulty::minimax</text>
</a>
</g>
</g>
<!-- Node1&#45;&gt;Node12 -->
<g id="edge11" class="edge">
<title>Node1&#45;&gt;Node12</title>
<path fill="none" stroke="midnightblue" d="M657.45,-79.85C630.49,-72.8 597.04,-64.07 571.99,-57.53"/>
<polygon fill="midnightblue" stroke="midnightblue" points="656.88,-83.31 667.44,-82.45 658.65,-76.54 656.88,-83.31"/>
</g>
<!-- Node14 -->
<g id="node14" class="node">
<title>Node14</title>
<g id="a_node14"><a xlink:href="test__rules_8cpp.html#aa6f79ad22c1a30ede84f9b4efc47abd0" target="_top" xlink:title="Test winning condition detection in rows, columns, and diagonals.">
<polygon fill="white" stroke="black" points="514,-0.5 514,-19.5 555,-19.5 555,-0.5 514,-0.5"/>
<text text-anchor="middle" x="534.5" y="-7.5" font-family="Helvetica,sans-Serif" font-size="10.00">TEST</text>
</a>
</g>
</g>
<!-- Node1&#45;&gt;Node14 -->
<g id="edge13" class="edge">
<title>Node1&#45;&gt;Node14</title>
<path fill="none" stroke="midnightblue" d="M683.48,-76.12C664.36,-62 634.57,-41.67 606,-29 589.54,-21.7 569.65,-16.66 555.2,-13.61"/>
<polygon fill="midnightblue" stroke="midnightblue" points="681.62,-79.1 691.72,-82.31 685.83,-73.51 681.62,-79.1"/>
</g>
<!-- Node3 -->
<g id="node3" class="node">
<title>Node3</title>
<g id="a_node3"><a xlink:href="test__rules_8cpp.html#a4a6be028cd778f069027f1d92d2685cf" target="_top" xlink:title="Test draw condition detection when the board is full with no winner.">
<polygon fill="white" stroke="black" points="335,-164.5 335,-183.5 376,-183.5 376,-164.5 335,-164.5"/>
<text text-anchor="middle" x="355.5" y="-171.5" font-family="Helvetica,sans-Serif" font-size="10.00">TEST</text>
</a>
</g>
</g>
<!-- Node2&#45;&gt;Node3 -->
<g id="edge2" class="edge">
<title>Node2&#45;&gt;Node3</title>
<path fill="none" stroke="midnightblue" d="M457.83,-174C428.04,-174 396.26,-174 376.4,-174"/>
<polygon fill="midnightblue" stroke="midnightblue" points="457.84,-177.5 467.84,-174 457.84,-170.5 457.84,-177.5"/>
</g>
<!-- Node5 -->
<g id="node5" class="node">
<title>Node5</title>
<g id="a_node5"><a xlink:href="classGame.html#ab1e9b447334f6ec64ad91df3e60574f1" target="_top" xlink:title="Processes a single turn for a player in classic mode.">
<polygon fill="white" stroke="black" points="285.5,-126.5 285.5,-145.5 425.5,-145.5 425.5,-126.5 285.5,-126.5"/>
<text text-anchor="middle" x="355.5" y="-133.5" font-family="Helvetica,sans-Serif" font-size="10.00">Game::processPlayerTurn</text>
</a>
</g>
</g>
<!-- Node4&#45;&gt;Node5 -->
<g id="edge4" class="edge">
<title>Node4&#45;&gt;Node5</title>
<path fill="none" stroke="midnightblue" d="M456.65,-136C446.38,-136 435.89,-136 425.76,-136"/>
<polygon fill="midnightblue" stroke="midnightblue" points="456.84,-139.5 466.84,-136 456.84,-132.5 456.84,-139.5"/>
</g>
<!-- Node6 -->
<g id="node6" class="node">
<title>Node6</title>
<g id="a_node6"><a xlink:href="classGame.html#a3d9b98f7c4a96ecf578f75b96c9f0e90" target="_top" xlink:title="Starts the game loop.">
<polygon fill="white" stroke="black" points="174,-126.5 174,-145.5 248,-145.5 248,-126.5 174,-126.5"/>
<text text-anchor="middle" x="211" y="-133.5" font-family="Helvetica,sans-Serif" font-size="10.00">Game::start</text>
</a>
</g>
</g>
<!-- Node5&#45;&gt;Node6 -->
<g id="edge5" class="edge">
<title>Node5&#45;&gt;Node6</title>
<path fill="none" stroke="midnightblue" d="M275.07,-136C265.64,-136 256.41,-136 248.04,-136"/>
<polygon fill="midnightblue" stroke="midnightblue" points="275.34,-139.5 285.34,-136 275.34,-132.5 275.34,-139.5"/>
</g>
<!-- Node7 -->
<g id="node7" class="node">
<title>Node7</title>
<g id="a_node7"><a xlink:href="main_8cpp.html#ae66f6b31b5ad750f1fe042a706a4e3d4" target="_top" xlink:title="Main function &#45; entry point of the application.">
<polygon fill="white" stroke="black" points="48.5,-170.5 48.5,-189.5 89.5,-189.5 89.5,-170.5 48.5,-170.5"/>
<text text-anchor="middle" x="69" y="-177.5" font-family="Helvetica,sans-Serif" font-size="10.00">main</text>
</a>
</g>
</g>
<!-- Node6&#45;&gt;Node7 -->
<g id="edge6" class="edge">
<title>Node6&#45;&gt;Node7</title>
<path fill="none" stroke="midnightblue" d="M174.1,-148.95C162.62,-152.97 149.82,-157.3 138,-161 121.86,-166.05 103.36,-171.18 89.73,-174.83"/>
<polygon fill="midnightblue" stroke="midnightblue" points="175.53,-152.16 183.8,-145.53 173.2,-145.56 175.53,-152.16"/>
</g>
<!-- Node8 -->
<g id="node8" class="node">
<title>Node8</title>
<g id="a_node8"><a xlink:href="classIntegrationTest.html#acbc0b497e7b1195c0f595813021a3a7a" target="_top" xlink:title="Simulates a game with specified human moves against controlled AI.">
<polygon fill="white" stroke="black" points="0,-121 0,-151 138,-151 138,-121 0,-121"/>
<text text-anchor="start" x="8" y="-139" font-family="Helvetica,sans-Serif" font-size="10.00">IntegrationTest::simulate</text>
<text text-anchor="middle" x="69" y="-128" font-family="Helvetica,sans-Serif" font-size="10.00">Turns</text>
</a>
</g>
</g>
<!-- Node6&#45;&gt;Node8 -->
<g id="edge7" class="edge">
<title>Node6&#45;&gt;Node8</title>
<path fill="none" stroke="midnightblue" d="M163.78,-136C155.51,-136 146.74,-136 138.01,-136"/>
<polygon fill="midnightblue" stroke="midnightblue" points="163.95,-139.5 173.95,-136 163.95,-132.5 163.95,-139.5"/>
</g>
<!-- Node9 -->
<g id="node9" class="node">
<title>Node9</title>
<g id="a_node9"><a xlink:href="test__3d__game_8cpp.html#a269fa077455455cef649c722293e9289" target="_top" xlink:title="Test case for winning the 3D game by completing a space diagonal.">
<polygon fill="white" stroke="black" points="48.5,-82.5 48.5,-101.5 89.5,-101.5 89.5,-82.5 48.5,-82.5"/>
<text text-anchor="middle" x="69" y="-89.5" font-family="Helvetica,sans-Serif" font-size="10.00">TEST</text>
</a>
</g>
</g>
<!-- Node6&#45;&gt;Node9 -->
<g id="edge8" class="edge">
<title>Node6&#45;&gt;Node9</title>
<path fill="none" stroke="midnightblue" d="M172.27,-123.14C161.25,-119.46 149.17,-115.5 138,-112 121.8,-106.92 103.3,-101.5 89.7,-97.59"/>
<polygon fill="midnightblue" stroke="midnightblue" points="171.44,-126.56 182.04,-126.42 173.67,-119.92 171.44,-126.56"/>
</g>
<!-- Node11 -->
<g id="node11" class="node">
<title>Node11</title>
<g id="a_node11"><a xlink:href="classMediumAIDifficulty.html#a1e2b191a320ee5315849174ca28330fd" target="_top" xlink:title="Calculates the best move for the AI.">
<polygon fill="white" stroke="black" points="297.5,-77 297.5,-107 413.5,-107 413.5,-77 297.5,-77"/>
<text text-anchor="start" x="305.5" y="-95" font-family="Helvetica,sans-Serif" font-size="10.00">MediumAIDifficulty</text>
<text text-anchor="middle" x="355.5" y="-84" font-family="Helvetica,sans-Serif" font-size="10.00">::calculateBestMove</text>
</a>
</g>
</g>
<!-- Node10&#45;&gt;Node11 -->
<g id="edge10" class="edge">
<title>Node10&#45;&gt;Node11</title>
<path fill="none" stroke="midnightblue" d="M469.21,-92C451.02,-92 431.35,-92 413.61,-92"/>
<polygon fill="midnightblue" stroke="midnightblue" points="469.43,-95.5 479.43,-92 469.43,-88.5 469.43,-95.5"/>
</g>
<!-- Node13 -->
<g id="node13" class="node">
<title>Node13</title>
<g id="a_node13"><a xlink:href="classHardAIDifficulty.html#ab6ccc0f386c80895c18b196417c1e21b" target="_top" xlink:title="Calculates the optimal move using the Minimax algorithm.">
<polygon fill="white" stroke="black" points="284,-28 284,-58 427,-58 427,-28 284,-28"/>
<text text-anchor="start" x="292" y="-46" font-family="Helvetica,sans-Serif" font-size="10.00">HardAIDifficulty::calculate</text>
<text text-anchor="middle" x="355.5" y="-35" font-family="Helvetica,sans-Serif" font-size="10.00">BestMove</text>
</a>
</g>
</g>
<!-- Node12&#45;&gt;Node13 -->
<g id="edge12" class="edge">
<title>Node12&#45;&gt;Node13</title>
<path fill="none" stroke="midnightblue" d="M452.79,-45.72C444.22,-45.48 435.55,-45.23 427.11,-44.99"/>
<polygon fill="midnightblue" stroke="midnightblue" points="452.69,-49.22 462.78,-46 452.88,-42.22 452.69,-49.22"/>
</g>
</g>
</svg>
