<?xml version="1.0" encoding="UTF-8" standalone="no"?>
<!DOCTYPE svg PUBLIC "-//W3C//DTD SVG 1.1//EN"
 "http://www.w3.org/Graphics/SVG/1.1/DTD/svg11.dtd">
<!-- Generated by graphviz version 2.43.0 (0)
 -->
<!-- Title: HumanPlayer::get3DMove Pages: 1 -->
<svg width="313pt" height="66pt"
 viewBox="0.00 0.00 313.00 66.00" xmlns="http://www.w3.org/2000/svg" xmlns:xlink="http://www.w3.org/1999/xlink">
<g id="graph0" class="graph" transform="scale(1 1) rotate(0) translate(4 62)">
<title>HumanPlayer::get3DMove</title>
<polygon fill="white" stroke="transparent" points="-4,4 -4,-62 309,-62 309,4 -4,4"/>
<!-- Node1 -->
<g id="node1" class="node">
<title>Node1</title>
<g id="a_node1"><a xlink:title="Gets the player&#39;s move in 3D mode.">
<polygon fill="#bfbfbf" stroke="black" points="0,-19.5 0,-38.5 145,-38.5 145,-19.5 0,-19.5"/>
<text text-anchor="middle" x="72.5" y="-26.5" font-family="Helvetica,sans-Serif" font-size="10.00">HumanPlayer::get3DMove</text>
</a>
</g>
</g>
<!-- Node2 -->
<g id="node2" class="node">
<title>Node2</title>
<g id="a_node2"><a xlink:href="classBoard3D.html#ac7012b172bf0ab890582941596bd519e" target="_top" xlink:title="Checks if a move is valid on a specific level.">
<polygon fill="white" stroke="black" points="181,-38.5 181,-57.5 305,-57.5 305,-38.5 181,-38.5"/>
<text text-anchor="middle" x="243" y="-45.5" font-family="Helvetica,sans-Serif" font-size="10.00">Board3D::isMoveValid</text>
</a>
</g>
</g>
<!-- Node1&#45;&gt;Node2 -->
<g id="edge1" class="edge">
<title>Node1&#45;&gt;Node2</title>
<path fill="none" stroke="midnightblue" d="M145.45,-37.11C153.84,-38.06 162.4,-39.02 170.79,-39.97"/>
<polygon fill="midnightblue" stroke="midnightblue" points="170.57,-43.47 180.9,-41.11 171.36,-36.51 170.57,-43.47"/>
</g>
<!-- Node3 -->
<g id="node3" class="node">
<title>Node3</title>
<g id="a_node3"><a xlink:href="classPlayer.html#a226a4c11d51c5037723f880b72144c3a" target="_top" xlink:title="Checks if the player requested to exit the game.">
<polygon fill="white" stroke="black" points="191,-0.5 191,-19.5 295,-19.5 295,-0.5 191,-0.5"/>
<text text-anchor="middle" x="243" y="-7.5" font-family="Helvetica,sans-Serif" font-size="10.00">Player::shouldExit</text>
</a>
</g>
</g>
<!-- Node1&#45;&gt;Node3 -->
<g id="edge2" class="edge">
<title>Node1&#45;&gt;Node3</title>
<path fill="none" stroke="midnightblue" d="M145.45,-20.89C157.28,-19.55 169.44,-18.18 180.97,-16.88"/>
<polygon fill="midnightblue" stroke="midnightblue" points="181.37,-20.36 190.92,-15.76 180.59,-13.4 181.37,-20.36"/>
</g>
</g>
</svg>
