<?xml version="1.0" encoding="UTF-8" standalone="no"?>
<!DOCTYPE svg PUBLIC "-//W3C//DTD SVG 1.1//EN"
 "http://www.w3.org/Graphics/SVG/1.1/DTD/svg11.dtd">
<!-- Generated by graphviz version 2.43.0 (0)
 -->
<!-- Title: HumanPlayer::getMove Pages: 1 -->
<svg width="565pt" height="85pt"
 viewBox="0.00 0.00 565.00 85.00" xmlns="http://www.w3.org/2000/svg" xmlns:xlink="http://www.w3.org/1999/xlink">
<g id="graph0" class="graph" transform="scale(1 1) rotate(0) translate(4 81)">
<title>HumanPlayer::getMove</title>
<polygon fill="white" stroke="transparent" points="-4,4 -4,-81 561,-81 561,4 -4,4"/>
<!-- Node1 -->
<g id="node1" class="node">
<title>Node1</title>
<g id="a_node1"><a xlink:title="Gets the player&#39;s move in classic mode.">
<polygon fill="#bfbfbf" stroke="black" points="0,-19.5 0,-38.5 131,-38.5 131,-19.5 0,-19.5"/>
<text text-anchor="middle" x="65.5" y="-26.5" font-family="Helvetica,sans-Serif" font-size="10.00">HumanPlayer::getMove</text>
</a>
</g>
</g>
<!-- Node2 -->
<g id="node2" class="node">
<title>Node2</title>
<g id="a_node2"><a xlink:href="classBoard.html#a3afa93ba72dd08cfdcbf264f9b077ef9" target="_top" xlink:title="Checks if a given move is valid.">
<polygon fill="white" stroke="black" points="167,-38.5 167,-57.5 277,-57.5 277,-38.5 167,-38.5"/>
<text text-anchor="middle" x="222" y="-45.5" font-family="Helvetica,sans-Serif" font-size="10.00">Board::isMoveValid</text>
</a>
</g>
</g>
<!-- Node1&#45;&gt;Node2 -->
<g id="edge1" class="edge">
<title>Node1&#45;&gt;Node2</title>
<path fill="none" stroke="midnightblue" d="M131.13,-36.95C139.59,-37.99 148.27,-39.06 156.72,-40.1"/>
<polygon fill="midnightblue" stroke="midnightblue" points="156.56,-43.6 166.91,-41.35 157.41,-36.65 156.56,-43.6"/>
</g>
<!-- Node5 -->
<g id="node5" class="node">
<title>Node5</title>
<g id="a_node5"><a xlink:href="classPlayer.html#a226a4c11d51c5037723f880b72144c3a" target="_top" xlink:title="Checks if the player requested to exit the game.">
<polygon fill="white" stroke="black" points="170,-0.5 170,-19.5 274,-19.5 274,-0.5 170,-0.5"/>
<text text-anchor="middle" x="222" y="-7.5" font-family="Helvetica,sans-Serif" font-size="10.00">Player::shouldExit</text>
</a>
</g>
</g>
<!-- Node1&#45;&gt;Node5 -->
<g id="edge5" class="edge">
<title>Node1&#45;&gt;Node5</title>
<path fill="none" stroke="midnightblue" d="M131.13,-21.05C140.6,-19.89 150.33,-18.69 159.74,-17.53"/>
<polygon fill="midnightblue" stroke="midnightblue" points="160.28,-20.99 169.78,-16.3 159.43,-14.05 160.28,-20.99"/>
</g>
<!-- Node3 -->
<g id="node3" class="node">
<title>Node3</title>
<g id="a_node3"><a xlink:href="classBoard.html#ab60a1f5210c03763122808df3f36e928" target="_top" xlink:title="Returns the cell value at the specified position.">
<polygon fill="white" stroke="black" points="313,-57.5 313,-76.5 399,-76.5 399,-57.5 313,-57.5"/>
<text text-anchor="middle" x="356" y="-64.5" font-family="Helvetica,sans-Serif" font-size="10.00">Board::getCell</text>
</a>
</g>
</g>
<!-- Node2&#45;&gt;Node3 -->
<g id="edge2" class="edge">
<title>Node2&#45;&gt;Node3</title>
<path fill="none" stroke="midnightblue" d="M277.07,-55.78C285.57,-57.01 294.35,-58.27 302.81,-59.49"/>
<polygon fill="midnightblue" stroke="midnightblue" points="302.54,-62.98 312.93,-60.95 303.53,-56.06 302.54,-62.98"/>
</g>
<!-- Node4 -->
<g id="node4" class="node">
<title>Node4</title>
<g id="a_node4"><a xlink:href="classBoard.html#a73d6e27fbfbbf73db8c3a532f2d42171" target="_top" xlink:title="Checks if the given position is valid on the board.">
<polygon fill="white" stroke="black" points="435,-38.5 435,-57.5 557,-57.5 557,-38.5 435,-38.5"/>
<text text-anchor="middle" x="496" y="-45.5" font-family="Helvetica,sans-Serif" font-size="10.00">Board::isValidPosition</text>
</a>
</g>
</g>
<!-- Node2&#45;&gt;Node4 -->
<g id="edge4" class="edge">
<title>Node2&#45;&gt;Node4</title>
<path fill="none" stroke="midnightblue" d="M277.06,-48C319.41,-48 378.65,-48 424.68,-48"/>
<polygon fill="midnightblue" stroke="midnightblue" points="424.89,-51.5 434.89,-48 424.89,-44.5 424.89,-51.5"/>
</g>
<!-- Node3&#45;&gt;Node4 -->
<g id="edge3" class="edge">
<title>Node3&#45;&gt;Node4</title>
<path fill="none" stroke="midnightblue" d="M399.15,-61.2C407.33,-60.07 416.11,-58.86 424.9,-57.65"/>
<polygon fill="midnightblue" stroke="midnightblue" points="425.39,-61.12 434.82,-56.29 424.43,-54.18 425.39,-61.12"/>
</g>
</g>
</svg>
