<?xml version="1.0" encoding="UTF-8" standalone="no"?>
<!DOCTYPE svg PUBLIC "-//W3C//DTD SVG 1.1//EN"
 "http://www.w3.org/Graphics/SVG/1.1/DTD/svg11.dtd">
<!-- Generated by graphviz version 2.43.0 (0)
 -->
<!-- Title: TestOutput Pages: 1 -->
<svg width="246pt" height="173pt"
 viewBox="0.00 0.00 245.50 173.00" xmlns="http://www.w3.org/2000/svg" xmlns:xlink="http://www.w3.org/1999/xlink">
<g id="graph0" class="graph" transform="scale(1 1) rotate(0) translate(4 169)">
<title>TestOutput</title>
<polygon fill="white" stroke="transparent" points="-4,4 -4,-169 241.5,-169 241.5,4 -4,4"/>
<!-- Node1 -->
<g id="node1" class="node">
<title>Node1</title>
<g id="a_node1"><a xlink:title="Custom output handler to capture the last board state.">
<polygon fill="#bfbfbf" stroke="black" points="62.5,-0.5 62.5,-19.5 131.5,-19.5 131.5,-0.5 62.5,-0.5"/>
<text text-anchor="middle" x="97" y="-7.5" font-family="Helvetica,sans-Serif" font-size="10.00">TestOutput</text>
</a>
</g>
</g>
<!-- Node2 -->
<g id="node2" class="node">
<title>Node2</title>
<g id="a_node2"><a xlink:href="classConsoleOutput.html" target="_top" xlink:title="Handles output of game information to the console.">
<polygon fill="white" stroke="black" points="10.5,-67.5 10.5,-86.5 99.5,-86.5 99.5,-67.5 10.5,-67.5"/>
<text text-anchor="middle" x="55" y="-74.5" font-family="Helvetica,sans-Serif" font-size="10.00">ConsoleOutput</text>
</a>
</g>
</g>
<!-- Node2&#45;&gt;Node1 -->
<g id="edge1" class="edge">
<title>Node2&#45;&gt;Node1</title>
<path fill="none" stroke="midnightblue" d="M66.29,-58.53C74.42,-45.95 85.04,-29.51 91.43,-19.63"/>
<polygon fill="midnightblue" stroke="midnightblue" points="63.15,-56.94 60.66,-67.23 69.03,-60.73 63.15,-56.94"/>
</g>
<!-- Node3 -->
<g id="node3" class="node">
<title>Node3</title>
<g id="a_node3"><a xlink:href="classOutputHandler.html" target="_top" xlink:title="Interface for output handling.">
<polygon fill="white" stroke="black" points="0,-140 0,-159 88,-159 88,-140 0,-140"/>
<text text-anchor="middle" x="44" y="-147" font-family="Helvetica,sans-Serif" font-size="10.00">OutputHandler</text>
</a>
</g>
</g>
<!-- Node3&#45;&gt;Node2 -->
<g id="edge2" class="edge">
<title>Node3&#45;&gt;Node2</title>
<path fill="none" stroke="midnightblue" d="M46.91,-129.86C49.09,-115.9 51.97,-97.43 53.64,-86.72"/>
<polygon fill="midnightblue" stroke="midnightblue" points="43.43,-129.44 45.35,-139.86 50.35,-130.51 43.43,-129.44"/>
</g>
<!-- Node4 -->
<g id="node4" class="node">
<title>Node4</title>
<g id="a_node4"><a xlink:href="classBoard.html" target="_top" xlink:title="Represents the Tic&#45;Tac&#45;Toe game board.">
<polygon fill="white" stroke="black" points="138.5,-67.5 138.5,-86.5 183.5,-86.5 183.5,-67.5 138.5,-67.5"/>
<text text-anchor="middle" x="161" y="-74.5" font-family="Helvetica,sans-Serif" font-size="10.00">Board</text>
</a>
</g>
</g>
<!-- Node4&#45;&gt;Node1 -->
<g id="edge3" class="edge">
<title>Node4&#45;&gt;Node1</title>
<path fill="none" stroke="#9a32cd" stroke-dasharray="5,2" d="M145.24,-60C132.69,-47.25 115.6,-29.89 105.49,-19.63"/>
<polygon fill="#9a32cd" stroke="#9a32cd" points="142.86,-62.56 152.37,-67.23 147.85,-57.65 142.86,-62.56"/>
<text text-anchor="middle" x="158" y="-41" font-family="Helvetica,sans-Serif" font-size="10.00"> lastBoard</text>
</g>
<!-- Node5 -->
<g id="node5" class="node">
<title>Node5</title>
<g id="a_node5"><a xlink:title=" ">
<polygon fill="white" stroke="#bfbfbf" points="106.5,-134.5 106.5,-164.5 237.5,-164.5 237.5,-134.5 106.5,-134.5"/>
<text text-anchor="start" x="114.5" y="-152.5" font-family="Helvetica,sans-Serif" font-size="10.00">std::vector&lt; std::vector</text>
<text text-anchor="middle" x="172" y="-141.5" font-family="Helvetica,sans-Serif" font-size="10.00">&lt; Cell &gt; &gt;</text>
</a>
</g>
</g>
<!-- Node5&#45;&gt;Node4 -->
<g id="edge4" class="edge">
<title>Node5&#45;&gt;Node4</title>
<path fill="none" stroke="#9a32cd" stroke-dasharray="5,2" d="M168.19,-124.09C166.18,-111.21 163.84,-96.2 162.39,-86.89"/>
<polygon fill="#9a32cd" stroke="#9a32cd" points="164.77,-124.89 169.77,-134.23 171.69,-123.81 164.77,-124.89"/>
<text text-anchor="middle" x="178" y="-108" font-family="Helvetica,sans-Serif" font-size="10.00"> grid</text>
</g>
</g>
</svg>
