<?xml version="1.0" encoding="UTF-8" standalone="no"?>
<!DOCTYPE svg PUBLIC "-//W3C//DTD SVG 1.1//EN"
 "http://www.w3.org/Graphics/SVG/1.1/DTD/svg11.dtd">
<!-- Generated by graphviz version 2.43.0 (0)
 -->
<!-- Title: Board::isMoveValid Pages: 1 -->
<svg width="285pt" height="66pt"
 viewBox="0.00 0.00 285.00 66.00" xmlns="http://www.w3.org/2000/svg" xmlns:xlink="http://www.w3.org/1999/xlink">
<g id="graph0" class="graph" transform="scale(1 1) rotate(0) translate(4 62)">
<title>Board::isMoveValid</title>
<polygon fill="white" stroke="transparent" points="-4,4 -4,-62 281,-62 281,4 -4,4"/>
<!-- Node1 -->
<g id="node1" class="node">
<title>Node1</title>
<g id="a_node1"><a xlink:title="Checks if a given move is valid.">
<polygon fill="#bfbfbf" stroke="black" points="167,-19.5 167,-38.5 277,-38.5 277,-19.5 167,-19.5"/>
<text text-anchor="middle" x="222" y="-26.5" font-family="Helvetica,sans-Serif" font-size="10.00">Board::isMoveValid</text>
</a>
</g>
</g>
<!-- Node2 -->
<g id="node2" class="node">
<title>Node2</title>
<g id="a_node2"><a xlink:href="classHumanPlayer.html#aa4652eef1646acfae11c34fd9d024d41" target="_top" xlink:title="Gets the player&#39;s move in classic mode.">
<polygon fill="white" stroke="black" points="0,-38.5 0,-57.5 131,-57.5 131,-38.5 0,-38.5"/>
<text text-anchor="middle" x="65.5" y="-45.5" font-family="Helvetica,sans-Serif" font-size="10.00">HumanPlayer::getMove</text>
</a>
</g>
</g>
<!-- Node1&#45;&gt;Node2 -->
<g id="edge1" class="edge">
<title>Node1&#45;&gt;Node2</title>
<path fill="none" stroke="midnightblue" d="M156.76,-36.9C148.29,-37.94 139.6,-39.01 131.12,-40.05"/>
<polygon fill="midnightblue" stroke="midnightblue" points="157.47,-40.34 166.96,-35.65 156.61,-33.39 157.47,-40.34"/>
</g>
<!-- Node3 -->
<g id="node3" class="node">
<title>Node3</title>
<g id="a_node3"><a xlink:href="test__board_8cpp.html#a4a50edbf576ad576ba6e93c54f12aaa8" target="_top" xlink:title="Test validation of moves on the board.">
<polygon fill="white" stroke="black" points="45,-0.5 45,-19.5 86,-19.5 86,-0.5 45,-0.5"/>
<text text-anchor="middle" x="65.5" y="-7.5" font-family="Helvetica,sans-Serif" font-size="10.00">TEST</text>
</a>
</g>
</g>
<!-- Node1&#45;&gt;Node3 -->
<g id="edge2" class="edge">
<title>Node1&#45;&gt;Node3</title>
<path fill="none" stroke="midnightblue" d="M156.95,-21.12C131.49,-17.99 104.06,-14.62 86.16,-12.42"/>
<polygon fill="midnightblue" stroke="midnightblue" points="156.61,-24.61 166.96,-22.35 157.47,-17.66 156.61,-24.61"/>
</g>
</g>
</svg>
