<?xml version="1.0" encoding="UTF-8" standalone="no"?>
<!DOCTYPE svg PUBLIC "-//W3C//DTD SVG 1.1//EN"
 "http://www.w3.org/Graphics/SVG/1.1/DTD/svg11.dtd">
<!-- Generated by graphviz version 2.43.0 (0)
 -->
<!-- Title: include/HumanPlayer.h Pages: 1 -->
<svg width="955pt" height="95pt"
 viewBox="0.00 0.00 955.00 95.00" xmlns="http://www.w3.org/2000/svg" xmlns:xlink="http://www.w3.org/1999/xlink">
<g id="graph0" class="graph" transform="scale(1 1) rotate(0) translate(4 91)">
<title>include/HumanPlayer.h</title>
<polygon fill="white" stroke="transparent" points="-4,4 -4,-91 951,-91 951,4 -4,4"/>
<!-- Node1 -->
<g id="node1" class="node">
<title>Node1</title>
<g id="a_node1"><a xlink:title="Header file for the HumanPlayer class.">
<polygon fill="#bfbfbf" stroke="black" points="380,-67.5 380,-86.5 509,-86.5 509,-67.5 380,-67.5"/>
<text text-anchor="middle" x="444.5" y="-74.5" font-family="Helvetica,sans-Serif" font-size="10.00">include/HumanPlayer.h</text>
</a>
</g>
</g>
<!-- Node2 -->
<g id="node2" class="node">
<title>Node2</title>
<g id="a_node2"><a xlink:href="HumanPlayer_8cpp.html" target="_top" xlink:title="Implementation of the HumanPlayer class handling human input.">
<polygon fill="white" stroke="black" points="0,-6 0,-25 119,-25 119,-6 0,-6"/>
<text text-anchor="middle" x="59.5" y="-13" font-family="Helvetica,sans-Serif" font-size="10.00">src/HumanPlayer.cpp</text>
</a>
</g>
</g>
<!-- Node1&#45;&gt;Node2 -->
<g id="edge1" class="edge">
<title>Node1&#45;&gt;Node2</title>
<path fill="none" stroke="midnightblue" d="M369.88,-66.89C305.49,-58.67 210.1,-45.65 127.5,-31 117.64,-29.25 107.02,-27.11 97.18,-25.02"/>
<polygon fill="midnightblue" stroke="midnightblue" points="369.58,-70.38 379.94,-68.16 370.46,-63.43 369.58,-70.38"/>
</g>
<!-- Node3 -->
<g id="node3" class="node">
<title>Node3</title>
<g id="a_node3"><a xlink:href="main_8cpp.html" target="_top" xlink:title="Main application file for Tic&#45;Tac&#45;Toe game.">
<polygon fill="white" stroke="black" points="137,-6 137,-25 216,-25 216,-6 137,-6"/>
<text text-anchor="middle" x="176.5" y="-13" font-family="Helvetica,sans-Serif" font-size="10.00">src/main.cpp</text>
</a>
</g>
</g>
<!-- Node1&#45;&gt;Node3 -->
<g id="edge2" class="edge">
<title>Node1&#45;&gt;Node3</title>
<path fill="none" stroke="midnightblue" d="M386.08,-65.56C341.56,-57.24 278.85,-44.74 224.5,-31 217.58,-29.25 210.17,-27.13 203.29,-25.07"/>
<polygon fill="midnightblue" stroke="midnightblue" points="385.67,-69.04 396.15,-67.43 386.95,-62.16 385.67,-69.04"/>
</g>
<!-- Node4 -->
<g id="node4" class="node">
<title>Node4</title>
<g id="a_node4"><a xlink:href="test__3d__game_8cpp.html" target="_top" xlink:title="Unit tests for 3D Tic&#45;Tac&#45;Toe game mode including win scenarios and early exit handling.">
<polygon fill="white" stroke="black" points="234,-6 234,-25 367,-25 367,-6 234,-6"/>
<text text-anchor="middle" x="300.5" y="-13" font-family="Helvetica,sans-Serif" font-size="10.00">tests/test_3d_game.cpp</text>
</a>
</g>
</g>
<!-- Node1&#45;&gt;Node4 -->
<g id="edge3" class="edge">
<title>Node1&#45;&gt;Node4</title>
<path fill="none" stroke="midnightblue" d="M414.57,-63.63C386.59,-52.07 345.56,-35.12 321.09,-25.01"/>
<polygon fill="midnightblue" stroke="midnightblue" points="413.29,-66.89 423.87,-67.48 415.96,-60.42 413.29,-66.89"/>
</g>
<!-- Node5 -->
<g id="node5" class="node">
<title>Node5</title>
<g id="a_node5"><a xlink:href="test__3d__human__vs__human_8cpp.html" target="_top" xlink:title="Unit tests for 3D Tic&#45;Tac&#45;Toe mode with two human players.">
<polygon fill="white" stroke="black" points="385,-0.5 385,-30.5 504,-30.5 504,-0.5 385,-0.5"/>
<text text-anchor="start" x="393" y="-18.5" font-family="Helvetica,sans-Serif" font-size="10.00">tests/test_3d_human</text>
<text text-anchor="middle" x="444.5" y="-7.5" font-family="Helvetica,sans-Serif" font-size="10.00">_vs_human.cpp</text>
</a>
</g>
</g>
<!-- Node1&#45;&gt;Node5 -->
<g id="edge4" class="edge">
<title>Node1&#45;&gt;Node5</title>
<path fill="none" stroke="midnightblue" d="M444.5,-57.23C444.5,-48.59 444.5,-38.5 444.5,-30.52"/>
<polygon fill="midnightblue" stroke="midnightblue" points="441,-57.48 444.5,-67.48 448,-57.48 441,-57.48"/>
</g>
<!-- Node6 -->
<g id="node6" class="node">
<title>Node6</title>
<g id="a_node6"><a xlink:href="test__classic__human__vs__human_8cpp.html" target="_top" xlink:title="Unit tests for classic 2D Tic&#45;Tac&#45;Toe mode with two human players.">
<polygon fill="white" stroke="black" points="522,-0.5 522,-30.5 653,-30.5 653,-0.5 522,-0.5"/>
<text text-anchor="start" x="530" y="-18.5" font-family="Helvetica,sans-Serif" font-size="10.00">tests/test_classic</text>
<text text-anchor="middle" x="587.5" y="-7.5" font-family="Helvetica,sans-Serif" font-size="10.00">_human_vs_human.cpp</text>
</a>
</g>
</g>
<!-- Node1&#45;&gt;Node6 -->
<g id="edge5" class="edge">
<title>Node1&#45;&gt;Node6</title>
<path fill="none" stroke="midnightblue" d="M474.33,-63.59C497.51,-53.94 529.68,-40.56 553.8,-30.52"/>
<polygon fill="midnightblue" stroke="midnightblue" points="472.88,-60.4 464.99,-67.48 475.57,-66.86 472.88,-60.4"/>
</g>
<!-- Node7 -->
<g id="node7" class="node">
<title>Node7</title>
<g id="a_node7"><a xlink:href="test__game_8cpp.html" target="_top" xlink:title="Unit tests for the Game class in classic mode.">
<polygon fill="white" stroke="black" points="671.5,-6 671.5,-25 787.5,-25 787.5,-6 671.5,-6"/>
<text text-anchor="middle" x="729.5" y="-13" font-family="Helvetica,sans-Serif" font-size="10.00">tests/test_game.cpp</text>
</a>
</g>
</g>
<!-- Node1&#45;&gt;Node7 -->
<g id="edge6" class="edge">
<title>Node1&#45;&gt;Node7</title>
<path fill="none" stroke="midnightblue" d="M496.25,-65.46C540.43,-56.43 605.68,-43.01 662.5,-31 671.47,-29.1 681.1,-27.04 690.19,-25.07"/>
<polygon fill="midnightblue" stroke="midnightblue" points="495.41,-62.06 486.32,-67.49 496.82,-68.92 495.41,-62.06"/>
</g>
<!-- Node8 -->
<g id="node8" class="node">
<title>Node8</title>
<g id="a_node8"><a xlink:href="test__integration_8cpp.html" target="_top" xlink:title="Reliable integration tests with controlled AI behavior.">
<polygon fill="white" stroke="black" points="806,-6 806,-25 947,-25 947,-6 806,-6"/>
<text text-anchor="middle" x="876.5" y="-13" font-family="Helvetica,sans-Serif" font-size="10.00">tests/test_integration.cpp</text>
</a>
</g>
</g>
<!-- Node1&#45;&gt;Node8 -->
<g id="edge7" class="edge">
<title>Node1&#45;&gt;Node8</title>
<path fill="none" stroke="midnightblue" d="M519.44,-67.57C590.81,-59.27 701.18,-45.72 796.5,-31 807.94,-29.23 820.26,-27.11 831.72,-25.04"/>
<polygon fill="midnightblue" stroke="midnightblue" points="518.73,-64.13 509.2,-68.75 519.53,-71.08 518.73,-64.13"/>
</g>
</g>
</svg>
