<?xml version="1.0" encoding="UTF-8" standalone="no"?>
<!DOCTYPE svg PUBLIC "-//W3C//DTD SVG 1.1//EN"
 "http://www.w3.org/Graphics/SVG/1.1/DTD/svg11.dtd">
<!-- Generated by graphviz version 2.43.0 (0)
 -->
<!-- Title: main Pages: 1 -->
<svg width="821pt" height="332pt"
 viewBox="0.00 0.00 821.00 332.00" xmlns="http://www.w3.org/2000/svg" xmlns:xlink="http://www.w3.org/1999/xlink">
<g id="graph0" class="graph" transform="scale(1 1) rotate(0) translate(4 328)">
<title>main</title>
<polygon fill="white" stroke="transparent" points="-4,4 -4,-328 817,-328 817,4 -4,4"/>
<!-- Node1 -->
<g id="node1" class="node">
<title>Node1</title>
<g id="a_node1"><a xlink:title="Main function &#45; entry point of the application.">
<polygon fill="#bfbfbf" stroke="black" points="0,-228.5 0,-247.5 41,-247.5 41,-228.5 0,-228.5"/>
<text text-anchor="middle" x="20.5" y="-235.5" font-family="Helvetica,sans-Serif" font-size="10.00">main</text>
</a>
</g>
</g>
<!-- Node2 -->
<g id="node2" class="node">
<title>Node2</title>
<g id="a_node2"><a xlink:href="main_8cpp.html#a1c3af90bc0ef0359b98e18a763bec1f2" target="_top" xlink:title="Reads an integer input safely from the console within a specified range.">
<polygon fill="white" stroke="black" points="77,-247.5 77,-266.5 153,-266.5 153,-247.5 77,-247.5"/>
<text text-anchor="middle" x="115" y="-254.5" font-family="Helvetica,sans-Serif" font-size="10.00">readIntInput</text>
</a>
</g>
</g>
<!-- Node1&#45;&gt;Node2 -->
<g id="edge1" class="edge">
<title>Node1&#45;&gt;Node2</title>
<path fill="none" stroke="midnightblue" d="M41.12,-242.03C48.75,-243.6 57.85,-245.47 66.99,-247.34"/>
<polygon fill="midnightblue" stroke="midnightblue" points="66.36,-250.79 76.86,-249.37 67.77,-243.93 66.36,-250.79"/>
</g>
<!-- Node3 -->
<g id="node3" class="node">
<title>Node3</title>
<g id="a_node3"><a xlink:href="classGame.html#a3d9b98f7c4a96ecf578f75b96c9f0e90" target="_top" xlink:title="Starts the game loop.">
<polygon fill="white" stroke="black" points="78,-209.5 78,-228.5 152,-228.5 152,-209.5 78,-209.5"/>
<text text-anchor="middle" x="115" y="-216.5" font-family="Helvetica,sans-Serif" font-size="10.00">Game::start</text>
</a>
</g>
</g>
<!-- Node1&#45;&gt;Node3 -->
<g id="edge2" class="edge">
<title>Node1&#45;&gt;Node3</title>
<path fill="none" stroke="midnightblue" d="M41.12,-233.97C49.07,-232.34 58.61,-230.38 68.13,-228.42"/>
<polygon fill="midnightblue" stroke="midnightblue" points="68.89,-231.84 77.98,-226.4 67.48,-224.98 68.89,-231.84"/>
</g>
<!-- Node4 -->
<g id="node4" class="node">
<title>Node4</title>
<g id="a_node4"><a xlink:href="classBoard3D.html#a9bf13f3c44d0da0a442b2a8897c3f3f1" target="_top" xlink:title="Displays all levels of the 3D board using the output handler.">
<polygon fill="white" stroke="black" points="403.5,-304.5 403.5,-323.5 503.5,-323.5 503.5,-304.5 403.5,-304.5"/>
<text text-anchor="middle" x="453.5" y="-311.5" font-family="Helvetica,sans-Serif" font-size="10.00">Board3D::display</text>
</a>
</g>
</g>
<!-- Node3&#45;&gt;Node4 -->
<g id="edge3" class="edge">
<title>Node3&#45;&gt;Node4</title>
<path fill="none" stroke="midnightblue" d="M147.9,-228.53C197.3,-243.23 295.34,-272.1 379,-295 387.31,-297.28 396.18,-299.63 404.77,-301.87"/>
<polygon fill="midnightblue" stroke="midnightblue" points="404.12,-305.32 414.68,-304.44 405.88,-298.54 404.12,-305.32"/>
</g>
<!-- Node5 -->
<g id="node5" class="node">
<title>Node5</title>
<g id="a_node5"><a xlink:href="classGame.html#a352092b594a3cffe4ebdd124b23fcf3f" target="_top" xlink:title="Processes a single turn for a player in 3D mode.">
<polygon fill="white" stroke="black" points="189,-209.5 189,-228.5 343,-228.5 343,-209.5 189,-209.5"/>
<text text-anchor="middle" x="266" y="-216.5" font-family="Helvetica,sans-Serif" font-size="10.00">Game::process3DPlayerTurn</text>
</a>
</g>
</g>
<!-- Node3&#45;&gt;Node5 -->
<g id="edge4" class="edge">
<title>Node3&#45;&gt;Node5</title>
<path fill="none" stroke="midnightblue" d="M152.07,-219C160.29,-219 169.37,-219 178.71,-219"/>
<polygon fill="midnightblue" stroke="midnightblue" points="178.91,-222.5 188.91,-219 178.91,-215.5 178.91,-222.5"/>
</g>
<!-- Node13 -->
<g id="node13" class="node">
<title>Node13</title>
<g id="a_node13"><a xlink:href="classGame.html#ab1e9b447334f6ec64ad91df3e60574f1" target="_top" xlink:title="Processes a single turn for a player in classic mode.">
<polygon fill="white" stroke="black" points="196,-95.5 196,-114.5 336,-114.5 336,-95.5 196,-95.5"/>
<text text-anchor="middle" x="266" y="-102.5" font-family="Helvetica,sans-Serif" font-size="10.00">Game::processPlayerTurn</text>
</a>
</g>
</g>
<!-- Node3&#45;&gt;Node13 -->
<g id="edge13" class="edge">
<title>Node3&#45;&gt;Node13</title>
<path fill="none" stroke="midnightblue" d="M128.45,-209.48C154.02,-189.91 212.71,-145.01 244.17,-120.94"/>
<polygon fill="midnightblue" stroke="midnightblue" points="246.46,-123.59 252.27,-114.74 242.2,-118.03 246.46,-123.59"/>
</g>
<!-- Node5&#45;&gt;Node4 -->
<g id="edge8" class="edge">
<title>Node5&#45;&gt;Node4</title>
<path fill="none" stroke="midnightblue" d="M281.23,-228.75C310.8,-248.99 376.35,-293.8 379,-295 384.31,-297.4 389.98,-299.54 395.72,-301.43"/>
<polygon fill="midnightblue" stroke="midnightblue" points="394.82,-304.82 405.41,-304.39 396.87,-298.12 394.82,-304.82"/>
</g>
<!-- Node6 -->
<g id="node6" class="node">
<title>Node6</title>
<g id="a_node6"><a xlink:href="classGame.html#a33cfdb05157ddf6356a42859e0e841fa" target="_top" xlink:title="Checks and updates the game state in 3D mode.">
<polygon fill="white" stroke="black" points="379,-266.5 379,-285.5 528,-285.5 528,-266.5 379,-266.5"/>
<text text-anchor="middle" x="453.5" y="-273.5" font-family="Helvetica,sans-Serif" font-size="10.00">Game::check3DGameState</text>
</a>
</g>
</g>
<!-- Node5&#45;&gt;Node6 -->
<g id="edge5" class="edge">
<title>Node5&#45;&gt;Node6</title>
<path fill="none" stroke="midnightblue" d="M293.52,-228.62C316.11,-236.66 349.49,-248.19 379,-257 386.9,-259.36 395.33,-261.7 403.56,-263.89"/>
<polygon fill="midnightblue" stroke="midnightblue" points="402.88,-267.33 413.44,-266.48 404.66,-260.56 402.88,-267.33"/>
</g>
<!-- Node9 -->
<g id="node9" class="node">
<title>Node9</title>
<g id="a_node9"><a xlink:href="classPlayer.html#adbacb549dd1c2a93cc13603fe919951a" target="_top" xlink:title="Gets the player&#39;s move in 3D mode.">
<polygon fill="white" stroke="black" points="398.5,-228.5 398.5,-247.5 508.5,-247.5 508.5,-228.5 398.5,-228.5"/>
<text text-anchor="middle" x="453.5" y="-235.5" font-family="Helvetica,sans-Serif" font-size="10.00">Player::get3DMove</text>
</a>
</g>
</g>
<!-- Node5&#45;&gt;Node9 -->
<g id="edge9" class="edge">
<title>Node5&#45;&gt;Node9</title>
<path fill="none" stroke="midnightblue" d="M343.25,-226.81C358.13,-228.33 373.59,-229.92 388.04,-231.4"/>
<polygon fill="midnightblue" stroke="midnightblue" points="388.05,-234.92 398.36,-232.45 388.77,-227.95 388.05,-234.92"/>
</g>
<!-- Node10 -->
<g id="node10" class="node">
<title>Node10</title>
<g id="a_node10"><a xlink:href="classPlayer.html#a37e594fcc4855797805de48e13bdf9f0" target="_top" xlink:title="Returns the player&#39;s marker.">
<polygon fill="white" stroke="black" points="402,-114.5 402,-133.5 505,-133.5 505,-114.5 402,-114.5"/>
<text text-anchor="middle" x="453.5" y="-121.5" font-family="Helvetica,sans-Serif" font-size="10.00">Player::getMarker</text>
</a>
</g>
</g>
<!-- Node5&#45;&gt;Node10 -->
<g id="edge10" class="edge">
<title>Node5&#45;&gt;Node10</title>
<path fill="none" stroke="midnightblue" d="M278.3,-209.36C297.65,-193.31 338.96,-161.1 379,-143 384.31,-140.6 389.98,-138.46 395.72,-136.57"/>
<polygon fill="midnightblue" stroke="midnightblue" points="396.87,-139.88 405.41,-133.61 394.82,-133.18 396.87,-139.88"/>
</g>
<!-- Node11 -->
<g id="node11" class="node">
<title>Node11</title>
<g id="a_node11"><a xlink:href="classBoard3D.html#af809401bd881d4905eedfe4a9bcc1e46" target="_top" xlink:title="Executes a move on a specific level.">
<polygon fill="white" stroke="black" points="394,-190.5 394,-209.5 513,-209.5 513,-190.5 394,-190.5"/>
<text text-anchor="middle" x="453.5" y="-197.5" font-family="Helvetica,sans-Serif" font-size="10.00">Board3D::makeMove</text>
</a>
</g>
</g>
<!-- Node5&#45;&gt;Node11 -->
<g id="edge11" class="edge">
<title>Node5&#45;&gt;Node11</title>
<path fill="none" stroke="midnightblue" d="M343.25,-211.19C356.71,-209.81 370.65,-208.38 383.88,-207.03"/>
<polygon fill="midnightblue" stroke="midnightblue" points="384.25,-210.51 393.84,-206.01 383.54,-203.55 384.25,-210.51"/>
</g>
<!-- Node12 -->
<g id="node12" class="node">
<title>Node12</title>
<g id="a_node12"><a xlink:href="classPlayer.html#a226a4c11d51c5037723f880b72144c3a" target="_top" xlink:title="Checks if the player requested to exit the game.">
<polygon fill="white" stroke="black" points="401.5,-152.5 401.5,-171.5 505.5,-171.5 505.5,-152.5 401.5,-152.5"/>
<text text-anchor="middle" x="453.5" y="-159.5" font-family="Helvetica,sans-Serif" font-size="10.00">Player::shouldExit</text>
</a>
</g>
</g>
<!-- Node5&#45;&gt;Node12 -->
<g id="edge12" class="edge">
<title>Node5&#45;&gt;Node12</title>
<path fill="none" stroke="midnightblue" d="M293.52,-209.38C316.11,-201.34 349.49,-189.81 379,-181 386.9,-178.64 395.33,-176.3 403.56,-174.11"/>
<polygon fill="midnightblue" stroke="midnightblue" points="404.66,-177.44 413.44,-171.52 402.88,-170.67 404.66,-177.44"/>
</g>
<!-- Node7 -->
<g id="node7" class="node">
<title>Node7</title>
<g id="a_node7"><a xlink:href="classBoard3D.html#a543bfaf750c86f4015b735a08834bff6" target="_top" xlink:title="Checks if the specified player has won the game.">
<polygon fill="white" stroke="black" points="571,-247.5 571,-266.5 683,-266.5 683,-247.5 571,-247.5"/>
<text text-anchor="middle" x="627" y="-254.5" font-family="Helvetica,sans-Serif" font-size="10.00">Board3D::checkWin</text>
</a>
</g>
</g>
<!-- Node6&#45;&gt;Node7 -->
<g id="edge6" class="edge">
<title>Node6&#45;&gt;Node7</title>
<path fill="none" stroke="midnightblue" d="M528.23,-267.83C539.1,-266.63 550.23,-265.39 560.91,-264.21"/>
<polygon fill="midnightblue" stroke="midnightblue" points="561.43,-267.67 570.98,-263.1 560.66,-260.72 561.43,-267.67"/>
</g>
<!-- Node8 -->
<g id="node8" class="node">
<title>Node8</title>
<g id="a_node8"><a xlink:href="classBoard3D.html#a629525e28b6d78f1efc046d1f9e22757" target="_top" xlink:title="Checks if all levels of the board are full.">
<polygon fill="white" stroke="black" points="582,-285.5 582,-304.5 672,-304.5 672,-285.5 582,-285.5"/>
<text text-anchor="middle" x="627" y="-292.5" font-family="Helvetica,sans-Serif" font-size="10.00">Board3D::isFull</text>
</a>
</g>
</g>
<!-- Node6&#45;&gt;Node8 -->
<g id="edge7" class="edge">
<title>Node6&#45;&gt;Node8</title>
<path fill="none" stroke="midnightblue" d="M528.23,-284.17C542.7,-285.77 557.63,-287.43 571.34,-288.94"/>
<polygon fill="midnightblue" stroke="midnightblue" points="571.23,-292.45 581.56,-290.08 572,-285.5 571.23,-292.45"/>
</g>
<!-- Node13&#45;&gt;Node10 -->
<g id="edge18" class="edge">
<title>Node13&#45;&gt;Node10</title>
<path fill="none" stroke="midnightblue" d="M336.07,-112.07C354.33,-113.94 373.89,-115.95 391.68,-117.77"/>
<polygon fill="midnightblue" stroke="midnightblue" points="391.61,-121.28 401.92,-118.82 392.33,-114.32 391.61,-121.28"/>
</g>
<!-- Node13&#45;&gt;Node12 -->
<g id="edge22" class="edge">
<title>Node13&#45;&gt;Node12</title>
<path fill="none" stroke="midnightblue" d="M293.52,-114.62C316.11,-122.66 349.49,-134.19 379,-143 386.9,-145.36 395.33,-147.7 403.56,-149.89"/>
<polygon fill="midnightblue" stroke="midnightblue" points="402.88,-153.33 413.44,-152.48 404.66,-146.56 402.88,-153.33"/>
</g>
<!-- Node14 -->
<g id="node14" class="node">
<title>Node14</title>
<g id="a_node14"><a xlink:href="classGame.html#aea417fe687fffaf5d634b84f760b4e14" target="_top" xlink:title="Checks and updates the game state in classic mode.">
<polygon fill="white" stroke="black" points="386,-76.5 386,-95.5 521,-95.5 521,-76.5 386,-76.5"/>
<text text-anchor="middle" x="453.5" y="-83.5" font-family="Helvetica,sans-Serif" font-size="10.00">Game::checkGameState</text>
</a>
</g>
</g>
<!-- Node13&#45;&gt;Node14 -->
<g id="edge14" class="edge">
<title>Node13&#45;&gt;Node14</title>
<path fill="none" stroke="midnightblue" d="M336.07,-97.93C349.04,-96.6 362.67,-95.2 375.86,-93.85"/>
<polygon fill="midnightblue" stroke="midnightblue" points="376.24,-97.33 385.83,-92.83 375.53,-90.37 376.24,-97.33"/>
</g>
<!-- Node18 -->
<g id="node18" class="node">
<title>Node18</title>
<g id="a_node18"><a xlink:href="classPlayer.html#ab4b53c68cb35afa75a870461e426da57" target="_top" xlink:title="Gets the player&#39;s move in classic mode.">
<polygon fill="white" stroke="black" points="405.5,-38.5 405.5,-57.5 501.5,-57.5 501.5,-38.5 405.5,-38.5"/>
<text text-anchor="middle" x="453.5" y="-45.5" font-family="Helvetica,sans-Serif" font-size="10.00">Player::getMove</text>
</a>
</g>
</g>
<!-- Node13&#45;&gt;Node18 -->
<g id="edge19" class="edge">
<title>Node13&#45;&gt;Node18</title>
<path fill="none" stroke="midnightblue" d="M293.52,-95.38C316.11,-87.34 349.49,-75.81 379,-67 386.9,-64.64 395.33,-62.3 403.56,-60.11"/>
<polygon fill="midnightblue" stroke="midnightblue" points="404.66,-63.44 413.44,-57.52 402.88,-56.67 404.66,-63.44"/>
</g>
<!-- Node19 -->
<g id="node19" class="node">
<title>Node19</title>
<g id="a_node19"><a xlink:href="classBoard.html#adcafb7f3909732ea0043c829b91e7e2d" target="_top" xlink:title="Sets the cell value at the specified position.">
<polygon fill="white" stroke="black" points="411,-0.5 411,-19.5 496,-19.5 496,-0.5 411,-0.5"/>
<text text-anchor="middle" x="453.5" y="-7.5" font-family="Helvetica,sans-Serif" font-size="10.00">Board::setCell</text>
</a>
</g>
</g>
<!-- Node13&#45;&gt;Node19 -->
<g id="edge20" class="edge">
<title>Node13&#45;&gt;Node19</title>
<path fill="none" stroke="midnightblue" d="M278.3,-95.36C297.65,-79.31 338.96,-47.1 379,-29 385.93,-25.87 393.47,-23.18 401,-20.9"/>
<polygon fill="midnightblue" stroke="midnightblue" points="402.15,-24.21 410.83,-18.13 400.25,-17.47 402.15,-24.21"/>
</g>
<!-- Node15 -->
<g id="node15" class="node">
<title>Node15</title>
<g id="a_node15"><a xlink:href="classGameRules.html#aac69246a5d92996b2c43676f795d58d9" target="_top" xlink:title="Checks if the specified player has won.">
<polygon fill="white" stroke="black" points="564,-57.5 564,-76.5 690,-76.5 690,-57.5 564,-57.5"/>
<text text-anchor="middle" x="627" y="-64.5" font-family="Helvetica,sans-Serif" font-size="10.00">GameRules::checkWin</text>
</a>
</g>
</g>
<!-- Node14&#45;&gt;Node15 -->
<g id="edge15" class="edge">
<title>Node14&#45;&gt;Node15</title>
<path fill="none" stroke="midnightblue" d="M521.3,-78.6C531.92,-77.42 542.95,-76.2 553.68,-75.01"/>
<polygon fill="midnightblue" stroke="midnightblue" points="554.32,-78.46 563.87,-73.88 553.55,-71.51 554.32,-78.46"/>
</g>
<!-- Node17 -->
<g id="node17" class="node">
<title>Node17</title>
<g id="a_node17"><a xlink:href="classBoard.html#aea604144c08c8442221b4a619d47db94" target="_top" xlink:title="Checks if the board is completely filled.">
<polygon fill="white" stroke="black" points="588.5,-95.5 588.5,-114.5 665.5,-114.5 665.5,-95.5 588.5,-95.5"/>
<text text-anchor="middle" x="627" y="-102.5" font-family="Helvetica,sans-Serif" font-size="10.00">Board::isFull</text>
</a>
</g>
</g>
<!-- Node14&#45;&gt;Node17 -->
<g id="edge17" class="edge">
<title>Node14&#45;&gt;Node17</title>
<path fill="none" stroke="midnightblue" d="M521.3,-93.4C540.32,-95.51 560.66,-97.76 578.3,-99.72"/>
<polygon fill="midnightblue" stroke="midnightblue" points="578.02,-103.21 588.35,-100.83 578.79,-96.25 578.02,-103.21"/>
</g>
<!-- Node16 -->
<g id="node16" class="node">
<title>Node16</title>
<g id="a_node16"><a xlink:href="classBoard.html#a16cdb8eaec4202fe7df18d6ca23a3f1d" target="_top" xlink:title="Returns the entire grid as a 2D vector.">
<polygon fill="white" stroke="black" points="726,-57.5 726,-76.5 813,-76.5 813,-57.5 726,-57.5"/>
<text text-anchor="middle" x="769.5" y="-64.5" font-family="Helvetica,sans-Serif" font-size="10.00">Board::getGrid</text>
</a>
</g>
</g>
<!-- Node15&#45;&gt;Node16 -->
<g id="edge16" class="edge">
<title>Node15&#45;&gt;Node16</title>
<path fill="none" stroke="midnightblue" d="M690.03,-67C698.61,-67 707.34,-67 715.72,-67"/>
<polygon fill="midnightblue" stroke="midnightblue" points="715.74,-70.5 725.74,-67 715.74,-63.5 715.74,-70.5"/>
</g>
<!-- Node20 -->
<g id="node20" class="node">
<title>Node20</title>
<g id="a_node20"><a xlink:href="classBoard.html#a73d6e27fbfbbf73db8c3a532f2d42171" target="_top" xlink:title="Checks if the given position is valid on the board.">
<polygon fill="white" stroke="black" points="566,-0.5 566,-19.5 688,-19.5 688,-0.5 566,-0.5"/>
<text text-anchor="middle" x="627" y="-7.5" font-family="Helvetica,sans-Serif" font-size="10.00">Board::isValidPosition</text>
</a>
</g>
</g>
<!-- Node19&#45;&gt;Node20 -->
<g id="edge21" class="edge">
<title>Node19&#45;&gt;Node20</title>
<path fill="none" stroke="midnightblue" d="M496.02,-10C513.91,-10 535.34,-10 555.59,-10"/>
<polygon fill="midnightblue" stroke="midnightblue" points="555.74,-13.5 565.74,-10 555.74,-6.5 555.74,-13.5"/>
</g>
</g>
</svg>
