<?xml version="1.0" encoding="UTF-8" standalone="no"?>
<!DOCTYPE svg PUBLIC "-//W3C//DTD SVG 1.1//EN"
 "http://www.w3.org/Graphics/SVG/1.1/DTD/svg11.dtd">
<!-- Generated by graphviz version 2.43.0 (0)
 -->
<!-- Title: include/Position.h Pages: 1 -->
<svg width="1882pt" height="319pt"
 viewBox="0.00 0.00 1881.50 319.00" xmlns="http://www.w3.org/2000/svg" xmlns:xlink="http://www.w3.org/1999/xlink">
<g id="graph0" class="graph" transform="scale(1 1) rotate(0) translate(4 315)">
<title>include/Position.h</title>
<polygon fill="white" stroke="transparent" points="-4,4 -4,-315 1877.5,-315 1877.5,4 -4,4"/>
<!-- Node1 -->
<g id="node1" class="node">
<title>Node1</title>
<g id="a_node1"><a xlink:title="Header file for the Position class.">
<polygon fill="#bfbfbf" stroke="black" points="1193.5,-291.5 1193.5,-310.5 1296.5,-310.5 1296.5,-291.5 1193.5,-291.5"/>
<text text-anchor="middle" x="1245" y="-298.5" font-family="Helvetica,sans-Serif" font-size="10.00">include/Position.h</text>
</a>
</g>
</g>
<!-- Node2 -->
<g id="node2" class="node">
<title>Node2</title>
<g id="a_node2"><a xlink:href="AIDifficulty_8h.html" target="_top" xlink:title="Header file for the AIDifficulty interface.">
<polygon fill="white" stroke="black" points="566,-179.5 566,-198.5 682,-198.5 682,-179.5 566,-179.5"/>
<text text-anchor="middle" x="624" y="-186.5" font-family="Helvetica,sans-Serif" font-size="10.00">include/AIDifficulty.h</text>
</a>
</g>
</g>
<!-- Node1&#45;&gt;Node2 -->
<g id="edge1" class="edge">
<title>Node1&#45;&gt;Node2</title>
<path fill="none" stroke="midnightblue" d="M1183.37,-292.15C1120.87,-283.92 1021.46,-270.11 936,-255 836.29,-237.37 719.7,-211.73 661.32,-198.54"/>
<polygon fill="midnightblue" stroke="midnightblue" points="1183.08,-295.64 1193.45,-293.47 1183.99,-288.7 1183.08,-295.64"/>
</g>
<!-- Node17 -->
<g id="node17" class="node">
<title>Node17</title>
<g id="a_node17"><a xlink:href="InputHandler_8h.html" target="_top" xlink:title="Header file for the InputHandler interface.">
<polygon fill="white" stroke="black" points="1187,-179.5 1187,-198.5 1313,-198.5 1313,-179.5 1187,-179.5"/>
<text text-anchor="middle" x="1250" y="-186.5" font-family="Helvetica,sans-Serif" font-size="10.00">include/InputHandler.h</text>
</a>
</g>
</g>
<!-- Node1&#45;&gt;Node17 -->
<g id="edge25" class="edge">
<title>Node1&#45;&gt;Node17</title>
<path fill="none" stroke="midnightblue" d="M1245.85,-281.35C1246.94,-257.25 1248.8,-216.31 1249.61,-198.59"/>
<polygon fill="midnightblue" stroke="midnightblue" points="1242.35,-281.22 1245.39,-291.37 1249.34,-281.54 1242.35,-281.22"/>
</g>
<!-- Node30 -->
<g id="node30" class="node">
<title>Node30</title>
<g id="a_node30"><a xlink:href="Move_8h.html" target="_top" xlink:title="Header file for the Move class.">
<polygon fill="white" stroke="black" points="944.5,-235.5 944.5,-254.5 1035.5,-254.5 1035.5,-235.5 944.5,-235.5"/>
<text text-anchor="middle" x="990" y="-242.5" font-family="Helvetica,sans-Serif" font-size="10.00">include/Move.h</text>
</a>
</g>
</g>
<!-- Node1&#45;&gt;Node30 -->
<g id="edge54" class="edge">
<title>Node1&#45;&gt;Node30</title>
<path fill="none" stroke="midnightblue" d="M1194.69,-289.35C1146.5,-279.14 1074.72,-263.94 1030.22,-254.52"/>
<polygon fill="midnightblue" stroke="midnightblue" points="1194.09,-292.8 1204.59,-291.44 1195.54,-285.95 1194.09,-292.8"/>
</g>
<!-- Node34 -->
<g id="node34" class="node">
<title>Node34</title>
<g id="a_node34"><a xlink:href="test__board_8cpp.html" target="_top" xlink:title="Unit tests for the Board class functionality.">
<polygon fill="white" stroke="black" points="1053,-179.5 1053,-198.5 1169,-198.5 1169,-179.5 1053,-179.5"/>
<text text-anchor="middle" x="1111" y="-186.5" font-family="Helvetica,sans-Serif" font-size="10.00">tests/test_board.cpp</text>
</a>
</g>
</g>
<!-- Node1&#45;&gt;Node34 -->
<g id="edge70" class="edge">
<title>Node1&#45;&gt;Node34</title>
<path fill="none" stroke="midnightblue" d="M1226.5,-284.82C1197.96,-261.39 1144.12,-217.19 1121.47,-198.59"/>
<polygon fill="midnightblue" stroke="midnightblue" points="1224.54,-287.73 1234.49,-291.37 1228.98,-282.32 1224.54,-287.73"/>
</g>
<!-- Node35 -->
<g id="node35" class="node">
<title>Node35</title>
<g id="a_node35"><a xlink:href="Position3D_8h.html" target="_top" xlink:title="Header file for the Position3D structure.">
<polygon fill="white" stroke="black" points="1273,-235.5 1273,-254.5 1389,-254.5 1389,-235.5 1273,-235.5"/>
<text text-anchor="middle" x="1331" y="-242.5" font-family="Helvetica,sans-Serif" font-size="10.00">include/Position3D.h</text>
</a>
</g>
</g>
<!-- Node1&#45;&gt;Node35 -->
<g id="edge60" class="edge">
<title>Node1&#45;&gt;Node35</title>
<path fill="none" stroke="midnightblue" d="M1267.45,-285.9C1283.22,-276 1303.81,-263.07 1317.22,-254.65"/>
<polygon fill="midnightblue" stroke="midnightblue" points="1265.43,-283.04 1258.82,-291.32 1269.15,-288.97 1265.43,-283.04"/>
</g>
<!-- Node36 -->
<g id="node36" class="node">
<title>Node36</title>
<g id="a_node36"><a xlink:href="Validator_8h.html" target="_top" xlink:title="Header file for the Validator class.">
<polygon fill="white" stroke="black" points="1363.5,-123.5 1363.5,-142.5 1470.5,-142.5 1470.5,-123.5 1363.5,-123.5"/>
<text text-anchor="middle" x="1417" y="-130.5" font-family="Helvetica,sans-Serif" font-size="10.00">include/Validator.h</text>
</a>
</g>
</g>
<!-- Node1&#45;&gt;Node36 -->
<g id="edge68" class="edge">
<title>Node1&#45;&gt;Node36</title>
<path fill="none" stroke="midnightblue" d="M1306.97,-297.04C1338.71,-292.18 1375.34,-280.82 1398,-255 1426.75,-222.23 1421.64,-164.35 1418.46,-142.59"/>
<polygon fill="midnightblue" stroke="midnightblue" points="1306.3,-293.59 1296.86,-298.39 1307.23,-300.53 1306.3,-293.59"/>
</g>
<!-- Node39 -->
<g id="node39" class="node">
<title>Node39</title>
<g id="a_node39"><a xlink:href="Position_8cpp.html" target="_top" xlink:title="Implementation of the Position class.">
<polygon fill="white" stroke="black" points="1445.5,-235.5 1445.5,-254.5 1538.5,-254.5 1538.5,-235.5 1445.5,-235.5"/>
<text text-anchor="middle" x="1492" y="-242.5" font-family="Helvetica,sans-Serif" font-size="10.00">src/Position.cpp</text>
</a>
</g>
</g>
<!-- Node1&#45;&gt;Node39 -->
<g id="edge69" class="edge">
<title>Node1&#45;&gt;Node39</title>
<path fill="none" stroke="midnightblue" d="M1294.03,-289.28C1340.7,-279.08 1410.03,-263.92 1453.05,-254.52"/>
<polygon fill="midnightblue" stroke="midnightblue" points="1293.16,-285.89 1284.14,-291.44 1294.65,-292.73 1293.16,-285.89"/>
</g>
<!-- Node3 -->
<g id="node3" class="node">
<title>Node3</title>
<g id="a_node3"><a xlink:href="AIPlayer_8h.html" target="_top" xlink:title="Header file for the AIPlayer class.">
<polygon fill="white" stroke="black" points="701,-67.5 701,-86.5 805,-86.5 805,-67.5 701,-67.5"/>
<text text-anchor="middle" x="753" y="-74.5" font-family="Helvetica,sans-Serif" font-size="10.00">include/AIPlayer.h</text>
</a>
</g>
</g>
<!-- Node2&#45;&gt;Node3 -->
<g id="edge2" class="edge">
<title>Node2&#45;&gt;Node3</title>
<path fill="none" stroke="midnightblue" d="M652.45,-174.93C668.03,-166.99 687.13,-155.89 702,-143 721.72,-125.9 739.18,-100.26 747.62,-86.87"/>
<polygon fill="midnightblue" stroke="midnightblue" points="650.69,-171.9 643.27,-179.46 653.79,-178.17 650.69,-171.9"/>
</g>
<!-- Node9 -->
<g id="node9" class="node">
<title>Node9</title>
<g id="a_node9"><a xlink:href="EasyAIDifficulty_8h.html" target="_top" xlink:title="Header file for the EasyAIDifficulty class.">
<polygon fill="white" stroke="black" points="543,-67.5 543,-86.5 683,-86.5 683,-67.5 543,-67.5"/>
<text text-anchor="middle" x="613" y="-74.5" font-family="Helvetica,sans-Serif" font-size="10.00">include/EasyAIDifficulty.h</text>
</a>
</g>
</g>
<!-- Node2&#45;&gt;Node9 -->
<g id="edge8" class="edge">
<title>Node2&#45;&gt;Node9</title>
<path fill="none" stroke="midnightblue" d="M652.81,-174.69C674.5,-162.68 698.66,-143.74 687,-123 676.98,-105.18 656.72,-93.59 639.93,-86.64"/>
<polygon fill="midnightblue" stroke="midnightblue" points="651.02,-171.68 643.78,-179.41 654.26,-177.88 651.02,-171.68"/>
</g>
<!-- Node12 -->
<g id="node12" class="node">
<title>Node12</title>
<g id="a_node12"><a xlink:href="MediumAIDifficulty_8h.html" target="_top" xlink:title="Header file for the MediumAIDifficulty class.">
<polygon fill="white" stroke="black" points="221,-123.5 221,-142.5 377,-142.5 377,-123.5 221,-123.5"/>
<text text-anchor="middle" x="299" y="-130.5" font-family="Helvetica,sans-Serif" font-size="10.00">include/MediumAIDifficulty.h</text>
</a>
</g>
</g>
<!-- Node2&#45;&gt;Node12 -->
<g id="edge15" class="edge">
<title>Node2&#45;&gt;Node12</title>
<path fill="none" stroke="midnightblue" d="M562.56,-177.79C501.14,-167.59 407.8,-152.08 350.26,-142.52"/>
<polygon fill="midnightblue" stroke="midnightblue" points="562.06,-181.26 572.5,-179.44 563.21,-174.35 562.06,-181.26"/>
</g>
<!-- Node15 -->
<g id="node15" class="node">
<title>Node15</title>
<g id="a_node15"><a xlink:href="NoMoveAIDifficulty_8h.html" target="_top" xlink:title="Stub AI that does not make any moves (for testing purposes).">
<polygon fill="white" stroke="black" points="395.5,-123.5 395.5,-142.5 552.5,-142.5 552.5,-123.5 395.5,-123.5"/>
<text text-anchor="middle" x="474" y="-130.5" font-family="Helvetica,sans-Serif" font-size="10.00">include/NoMoveAIDifficulty.h</text>
</a>
</g>
</g>
<!-- Node2&#45;&gt;Node15 -->
<g id="edge23" class="edge">
<title>Node2&#45;&gt;Node15</title>
<path fill="none" stroke="midnightblue" d="M590.78,-176.04C562.55,-165.88 522.74,-151.55 497.66,-142.52"/>
<polygon fill="midnightblue" stroke="midnightblue" points="589.64,-179.35 600.23,-179.44 592.01,-172.76 589.64,-179.35"/>
</g>
<!-- Node16 -->
<g id="node16" class="node">
<title>Node16</title>
<g id="a_node16"><a xlink:href="AIDifficulty_8cpp.html" target="_top" xlink:title="Implementation file for the AIDifficulty interface.">
<polygon fill="white" stroke="black" points="570.5,-123.5 570.5,-142.5 677.5,-142.5 677.5,-123.5 570.5,-123.5"/>
<text text-anchor="middle" x="624" y="-130.5" font-family="Helvetica,sans-Serif" font-size="10.00">src/AIDifficulty.cpp</text>
</a>
</g>
</g>
<!-- Node2&#45;&gt;Node16 -->
<g id="edge24" class="edge">
<title>Node2&#45;&gt;Node16</title>
<path fill="none" stroke="midnightblue" d="M624,-168.8C624,-159.91 624,-149.78 624,-142.75"/>
<polygon fill="midnightblue" stroke="midnightblue" points="620.5,-169.08 624,-179.08 627.5,-169.08 620.5,-169.08"/>
</g>
<!-- Node4 -->
<g id="node4" class="node">
<title>Node4</title>
<g id="a_node4"><a xlink:href="AIPlayer_8cpp.html" target="_top" xlink:title="Implementation of the AIPlayer class.">
<polygon fill="white" stroke="black" points="674,-6 674,-25 768,-25 768,-6 674,-6"/>
<text text-anchor="middle" x="721" y="-13" font-family="Helvetica,sans-Serif" font-size="10.00">src/AIPlayer.cpp</text>
</a>
</g>
</g>
<!-- Node3&#45;&gt;Node4 -->
<g id="edge3" class="edge">
<title>Node3&#45;&gt;Node4</title>
<path fill="none" stroke="midnightblue" d="M743.5,-58.33C737.58,-47.33 730.23,-33.66 725.58,-25.01"/>
<polygon fill="midnightblue" stroke="midnightblue" points="740.6,-60.33 748.42,-67.48 746.76,-57.01 740.6,-60.33"/>
</g>
<!-- Node5 -->
<g id="node5" class="node">
<title>Node5</title>
<g id="a_node5"><a xlink:href="main_8cpp.html" target="_top" xlink:title="Main application file for Tic&#45;Tac&#45;Toe game.">
<polygon fill="white" stroke="black" points="576.5,-6 576.5,-25 655.5,-25 655.5,-6 576.5,-6"/>
<text text-anchor="middle" x="616" y="-13" font-family="Helvetica,sans-Serif" font-size="10.00">src/main.cpp</text>
</a>
</g>
</g>
<!-- Node3&#45;&gt;Node5 -->
<g id="edge4" class="edge">
<title>Node3&#45;&gt;Node5</title>
<path fill="none" stroke="midnightblue" d="M724.17,-63.48C697.56,-51.92 658.77,-35.08 635.59,-25.01"/>
<polygon fill="midnightblue" stroke="midnightblue" points="722.8,-66.7 733.37,-67.48 725.59,-60.28 722.8,-66.7"/>
</g>
<!-- Node6 -->
<g id="node6" class="node">
<title>Node6</title>
<g id="a_node6"><a xlink:href="test__ai_8cpp.html" target="_top" xlink:title="Unit tests for AI player behaviors across different difficulty levels.">
<polygon fill="white" stroke="black" points="312.5,-6 312.5,-25 409.5,-25 409.5,-6 312.5,-6"/>
<text text-anchor="middle" x="361" y="-13" font-family="Helvetica,sans-Serif" font-size="10.00">tests/test_ai.cpp</text>
</a>
</g>
</g>
<!-- Node3&#45;&gt;Node6 -->
<g id="edge5" class="edge">
<title>Node3&#45;&gt;Node6</title>
<path fill="none" stroke="midnightblue" d="M690.69,-66.85C569.07,-50.25 536.06,-53.28 419,-31 410.33,-29.35 401.03,-27.2 392.46,-25.06"/>
<polygon fill="midnightblue" stroke="midnightblue" points="690.38,-70.34 700.76,-68.24 691.34,-63.4 690.38,-70.34"/>
</g>
<!-- Node7 -->
<g id="node7" class="node">
<title>Node7</title>
<g id="a_node7"><a xlink:href="test__game_8cpp.html" target="_top" xlink:title="Unit tests for the Game class in classic mode.">
<polygon fill="white" stroke="black" points="786,-6 786,-25 902,-25 902,-6 786,-6"/>
<text text-anchor="middle" x="844" y="-13" font-family="Helvetica,sans-Serif" font-size="10.00">tests/test_game.cpp</text>
</a>
</g>
</g>
<!-- Node3&#45;&gt;Node7 -->
<g id="edge6" class="edge">
<title>Node3&#45;&gt;Node7</title>
<path fill="none" stroke="midnightblue" d="M774.52,-61.93C792.06,-50.46 816.27,-34.63 830.99,-25.01"/>
<polygon fill="midnightblue" stroke="midnightblue" points="772.49,-59.07 766.04,-67.48 776.32,-64.93 772.49,-59.07"/>
</g>
<!-- Node8 -->
<g id="node8" class="node">
<title>Node8</title>
<g id="a_node8"><a xlink:href="test__integration_8cpp.html" target="_top" xlink:title="Reliable integration tests with controlled AI behavior.">
<polygon fill="white" stroke="black" points="920.5,-6 920.5,-25 1061.5,-25 1061.5,-6 920.5,-6"/>
<text text-anchor="middle" x="991" y="-13" font-family="Helvetica,sans-Serif" font-size="10.00">tests/test_integration.cpp</text>
</a>
</g>
</g>
<!-- Node3&#45;&gt;Node8 -->
<g id="edge7" class="edge">
<title>Node3&#45;&gt;Node8</title>
<path fill="none" stroke="midnightblue" d="M796.84,-65.04C843.04,-53.49 914.84,-35.54 956.96,-25.01"/>
<polygon fill="midnightblue" stroke="midnightblue" points="795.95,-61.65 787.1,-67.48 797.65,-68.45 795.95,-61.65"/>
</g>
<!-- Node9&#45;&gt;Node5 -->
<g id="edge10" class="edge">
<title>Node9&#45;&gt;Node5</title>
<path fill="none" stroke="midnightblue" d="M613.94,-57.32C614.49,-46.5 615.15,-33.4 615.57,-25.01"/>
<polygon fill="midnightblue" stroke="midnightblue" points="610.44,-57.31 613.43,-67.48 617.43,-57.66 610.44,-57.31"/>
</g>
<!-- Node9&#45;&gt;Node6 -->
<g id="edge12" class="edge">
<title>Node9&#45;&gt;Node6</title>
<path fill="none" stroke="midnightblue" d="M565.56,-65.23C526.25,-56.26 468.94,-43.03 419,-31 411.13,-29.1 402.67,-27.02 394.71,-25.03"/>
<polygon fill="midnightblue" stroke="midnightblue" points="564.87,-68.67 575.4,-67.48 566.43,-61.84 564.87,-68.67"/>
</g>
<!-- Node9&#45;&gt;Node7 -->
<g id="edge13" class="edge">
<title>Node9&#45;&gt;Node7</title>
<path fill="none" stroke="midnightblue" d="M655.83,-64.97C700.68,-53.41 770.17,-35.52 810.96,-25.01"/>
<polygon fill="midnightblue" stroke="midnightblue" points="654.91,-61.59 646.1,-67.48 656.65,-68.37 654.91,-61.59"/>
</g>
<!-- Node9&#45;&gt;Node8 -->
<g id="edge14" class="edge">
<title>Node9&#45;&gt;Node8</title>
<path fill="none" stroke="midnightblue" d="M683.2,-65.99C743.65,-57.24 833.18,-43.93 911,-31 922.14,-29.15 934.13,-27.04 945.35,-25.01"/>
<polygon fill="midnightblue" stroke="midnightblue" points="682.41,-62.57 673.01,-67.47 683.41,-69.5 682.41,-62.57"/>
</g>
<!-- Node10 -->
<g id="node10" class="node">
<title>Node10</title>
<g id="a_node10"><a xlink:href="EasyAIDifficulty_8cpp.html" target="_top" xlink:title="Implementation of the EasyAIDifficulty class representing a simple AI.">
<polygon fill="white" stroke="black" points="428,-6 428,-25 558,-25 558,-6 428,-6"/>
<text text-anchor="middle" x="493" y="-13" font-family="Helvetica,sans-Serif" font-size="10.00">src/EasyAIDifficulty.cpp</text>
</a>
</g>
</g>
<!-- Node9&#45;&gt;Node10 -->
<g id="edge9" class="edge">
<title>Node9&#45;&gt;Node10</title>
<path fill="none" stroke="midnightblue" d="M586.82,-63.02C563.55,-51.48 530.2,-34.94 510.16,-25.01"/>
<polygon fill="midnightblue" stroke="midnightblue" points="585.29,-66.17 595.81,-67.48 588.4,-59.9 585.29,-66.17"/>
</g>
<!-- Node11 -->
<g id="node11" class="node">
<title>Node11</title>
<g id="a_node11"><a xlink:href="MediumAIDifficulty_8cpp.html" target="_top" xlink:title="Implementation of the MediumAIDifficulty class with basic strategic AI.">
<polygon fill="white" stroke="black" points="0,-6 0,-25 146,-25 146,-6 0,-6"/>
<text text-anchor="middle" x="73" y="-13" font-family="Helvetica,sans-Serif" font-size="10.00">src/MediumAIDifficulty.cpp</text>
</a>
</g>
</g>
<!-- Node9&#45;&gt;Node11 -->
<g id="edge11" class="edge">
<title>Node9&#45;&gt;Node11</title>
<path fill="none" stroke="midnightblue" d="M532.94,-70.01C441.35,-62.73 286.99,-49.13 155,-31 142.83,-29.33 129.7,-27.17 117.59,-25.03"/>
<polygon fill="midnightblue" stroke="midnightblue" points="532.73,-73.51 542.97,-70.81 533.28,-66.53 532.73,-73.51"/>
</g>
<!-- Node12&#45;&gt;Node5 -->
<g id="edge20" class="edge">
<title>Node12&#45;&gt;Node5</title>
<path fill="none" stroke="midnightblue" d="M332.21,-119.9C396.47,-96.49 536.42,-45.5 592.28,-25.14"/>
<polygon fill="midnightblue" stroke="midnightblue" points="330.77,-116.7 322.57,-123.41 333.16,-123.28 330.77,-116.7"/>
</g>
<!-- Node12&#45;&gt;Node6 -->
<g id="edge22" class="edge">
<title>Node12&#45;&gt;Node6</title>
<path fill="none" stroke="midnightblue" d="M330.84,-118.94C344.24,-111.67 358.45,-101.17 366,-87 376.62,-67.08 369.39,-39.37 364.48,-25.37"/>
<polygon fill="midnightblue" stroke="midnightblue" points="329.17,-115.87 321.79,-123.47 332.3,-122.13 329.17,-115.87"/>
</g>
<!-- Node12&#45;&gt;Node11 -->
<g id="edge21" class="edge">
<title>Node12&#45;&gt;Node11</title>
<path fill="none" stroke="midnightblue" d="M272.12,-118.9C253.96,-110 229.48,-97.92 208,-87 164.87,-65.08 114.41,-38.47 89.15,-25.08"/>
<polygon fill="midnightblue" stroke="midnightblue" points="270.98,-122.24 281.5,-123.49 274.05,-115.95 270.98,-122.24"/>
</g>
<!-- Node13 -->
<g id="node13" class="node">
<title>Node13</title>
<g id="a_node13"><a xlink:href="HardAIDifficulty_8h.html" target="_top" xlink:title="Header file for the HardAIDifficulty class.">
<polygon fill="white" stroke="black" points="217,-67.5 217,-86.5 357,-86.5 357,-67.5 217,-67.5"/>
<text text-anchor="middle" x="287" y="-74.5" font-family="Helvetica,sans-Serif" font-size="10.00">include/HardAIDifficulty.h</text>
</a>
</g>
</g>
<!-- Node12&#45;&gt;Node13 -->
<g id="edge16" class="edge">
<title>Node12&#45;&gt;Node13</title>
<path fill="none" stroke="midnightblue" d="M294.8,-113.1C292.81,-104.14 290.52,-93.86 288.94,-86.75"/>
<polygon fill="midnightblue" stroke="midnightblue" points="291.43,-114.08 297.02,-123.08 298.27,-112.56 291.43,-114.08"/>
</g>
<!-- Node13&#45;&gt;Node5 -->
<g id="edge18" class="edge">
<title>Node13&#45;&gt;Node5</title>
<path fill="none" stroke="midnightblue" d="M365.58,-66.12C421.99,-58.36 499.63,-46.32 567,-31 574.35,-29.33 582.23,-27.17 589.46,-25.03"/>
<polygon fill="midnightblue" stroke="midnightblue" points="365.09,-62.65 355.65,-67.47 366.03,-69.59 365.09,-62.65"/>
</g>
<!-- Node13&#45;&gt;Node6 -->
<g id="edge19" class="edge">
<title>Node13&#45;&gt;Node6</title>
<path fill="none" stroke="midnightblue" d="M305.69,-60.97C319.84,-49.59 338.78,-34.37 350.42,-25.01"/>
<polygon fill="midnightblue" stroke="midnightblue" points="303.2,-58.48 297.6,-67.48 307.59,-63.94 303.2,-58.48"/>
</g>
<!-- Node14 -->
<g id="node14" class="node">
<title>Node14</title>
<g id="a_node14"><a xlink:href="HardAIDifficulty_8cpp.html" target="_top" xlink:title="Implementation of the HardAIDifficulty class using the Minimax algorithm.">
<polygon fill="white" stroke="black" points="164,-6 164,-25 294,-25 294,-6 164,-6"/>
<text text-anchor="middle" x="229" y="-13" font-family="Helvetica,sans-Serif" font-size="10.00">src/HardAIDifficulty.cpp</text>
</a>
</g>
</g>
<!-- Node13&#45;&gt;Node14 -->
<g id="edge17" class="edge">
<title>Node13&#45;&gt;Node14</title>
<path fill="none" stroke="midnightblue" d="M271.4,-60C260.42,-48.74 246.16,-34.1 237.29,-25.01"/>
<polygon fill="midnightblue" stroke="midnightblue" points="269.2,-62.76 278.69,-67.48 274.22,-57.87 269.2,-62.76"/>
</g>
<!-- Node18 -->
<g id="node18" class="node">
<title>Node18</title>
<g id="a_node18"><a xlink:href="ConsoleInput_8h.html" target="_top" xlink:title="Header file for the ConsoleInput class.">
<polygon fill="white" stroke="black" points="992,-67.5 992,-86.5 1120,-86.5 1120,-67.5 992,-67.5"/>
<text text-anchor="middle" x="1056" y="-74.5" font-family="Helvetica,sans-Serif" font-size="10.00">include/ConsoleInput.h</text>
</a>
</g>
</g>
<!-- Node17&#45;&gt;Node18 -->
<g id="edge26" class="edge">
<title>Node17&#45;&gt;Node18</title>
<path fill="none" stroke="midnightblue" d="M1176.59,-178.34C1148.88,-171.86 1118.43,-161.05 1095,-143 1075.61,-128.06 1063.81,-100.52 1058.8,-86.57"/>
<polygon fill="midnightblue" stroke="midnightblue" points="1176.14,-181.83 1186.65,-180.54 1177.63,-174.99 1176.14,-181.83"/>
</g>
<!-- Node23 -->
<g id="node23" class="node">
<title>Node23</title>
<g id="a_node23"><a xlink:href="Player_8h.html" target="_top" xlink:title="Header file for the Player base class.">
<polygon fill="white" stroke="black" points="1238,-123.5 1238,-142.5 1332,-142.5 1332,-123.5 1238,-123.5"/>
<text text-anchor="middle" x="1285" y="-130.5" font-family="Helvetica,sans-Serif" font-size="10.00">include/Player.h</text>
</a>
</g>
</g>
<!-- Node17&#45;&gt;Node23 -->
<g id="edge34" class="edge">
<title>Node17&#45;&gt;Node23</title>
<path fill="none" stroke="midnightblue" d="M1261.3,-170.57C1267.32,-161.27 1274.47,-150.25 1279.33,-142.75"/>
<polygon fill="midnightblue" stroke="midnightblue" points="1258.28,-168.79 1255.78,-179.08 1264.16,-172.6 1258.28,-168.79"/>
</g>
<!-- Node29 -->
<g id="node29" class="node">
<title>Node29</title>
<g id="a_node29"><a xlink:href="InputHandler_8cpp.html" target="_top" xlink:title="Implementation file for the InputHandler interface.">
<polygon fill="white" stroke="black" points="1104,-123.5 1104,-142.5 1220,-142.5 1220,-123.5 1104,-123.5"/>
<text text-anchor="middle" x="1162" y="-130.5" font-family="Helvetica,sans-Serif" font-size="10.00">src/InputHandler.cpp</text>
</a>
</g>
</g>
<!-- Node17&#45;&gt;Node29 -->
<g id="edge53" class="edge">
<title>Node17&#45;&gt;Node29</title>
<path fill="none" stroke="midnightblue" d="M1227.02,-173.9C1210.89,-164 1189.82,-151.07 1176.1,-142.65"/>
<polygon fill="midnightblue" stroke="midnightblue" points="1225.51,-177.08 1235.86,-179.32 1229.17,-171.11 1225.51,-177.08"/>
</g>
<!-- Node18&#45;&gt;Node5 -->
<g id="edge28" class="edge">
<title>Node18&#45;&gt;Node5</title>
<path fill="none" stroke="midnightblue" d="M981.45,-71.28C902.33,-65.37 773.93,-53.21 665,-31 657.35,-29.44 649.17,-27.24 641.73,-25.02"/>
<polygon fill="midnightblue" stroke="midnightblue" points="981.58,-74.79 991.8,-72.03 982.09,-67.81 981.58,-74.79"/>
</g>
<!-- Node18&#45;&gt;Node7 -->
<g id="edge32" class="edge">
<title>Node18&#45;&gt;Node7</title>
<path fill="none" stroke="midnightblue" d="M1015.91,-64.75C974.73,-53.19 911.52,-35.45 874.32,-25.01"/>
<polygon fill="midnightblue" stroke="midnightblue" points="1015.05,-68.14 1025.63,-67.48 1016.94,-61.4 1015.05,-68.14"/>
</g>
<!-- Node18&#45;&gt;Node8 -->
<g id="edge33" class="edge">
<title>Node18&#45;&gt;Node8</title>
<path fill="none" stroke="midnightblue" d="M1039.23,-60.65C1026.84,-49.31 1010.42,-34.28 1000.3,-25.01"/>
<polygon fill="midnightblue" stroke="midnightblue" points="1036.95,-63.3 1046.69,-67.48 1041.67,-58.14 1036.95,-63.3"/>
</g>
<!-- Node19 -->
<g id="node19" class="node">
<title>Node19</title>
<g id="a_node19"><a xlink:href="ConsoleInput_8cpp.html" target="_top" xlink:title="Implementation of the ConsoleInput class for handling user input via console.">
<polygon fill="white" stroke="black" points="1080,-6 1080,-25 1198,-25 1198,-6 1080,-6"/>
<text text-anchor="middle" x="1139" y="-13" font-family="Helvetica,sans-Serif" font-size="10.00">src/ConsoleInput.cpp</text>
</a>
</g>
</g>
<!-- Node18&#45;&gt;Node19 -->
<g id="edge27" class="edge">
<title>Node18&#45;&gt;Node19</title>
<path fill="none" stroke="midnightblue" d="M1076.07,-61.61C1092.03,-50.17 1113.83,-34.55 1127.13,-25.01"/>
<polygon fill="midnightblue" stroke="midnightblue" points="1073.98,-58.8 1067.89,-67.48 1078.06,-64.49 1073.98,-58.8"/>
</g>
<!-- Node20 -->
<g id="node20" class="node">
<title>Node20</title>
<g id="a_node20"><a xlink:href="test__3d__game_8cpp.html" target="_top" xlink:title="Unit tests for 3D Tic&#45;Tac&#45;Toe game mode including win scenarios and early exit handling.">
<polygon fill="white" stroke="black" points="1466.5,-6 1466.5,-25 1599.5,-25 1599.5,-6 1466.5,-6"/>
<text text-anchor="middle" x="1533" y="-13" font-family="Helvetica,sans-Serif" font-size="10.00">tests/test_3d_game.cpp</text>
</a>
</g>
</g>
<!-- Node18&#45;&gt;Node20 -->
<g id="edge29" class="edge">
<title>Node18&#45;&gt;Node20</title>
<path fill="none" stroke="midnightblue" d="M1130.47,-66.97C1277.41,-50.26 1316.25,-52.44 1458,-31 1469.15,-29.31 1481.16,-27.15 1492.23,-25.01"/>
<polygon fill="midnightblue" stroke="midnightblue" points="1129.71,-63.53 1120.17,-68.15 1130.5,-70.49 1129.71,-63.53"/>
</g>
<!-- Node21 -->
<g id="node21" class="node">
<title>Node21</title>
<g id="a_node21"><a xlink:href="test__3d__human__vs__human_8cpp.html" target="_top" xlink:title="Unit tests for 3D Tic&#45;Tac&#45;Toe mode with two human players.">
<polygon fill="white" stroke="black" points="1617.5,-0.5 1617.5,-30.5 1736.5,-30.5 1736.5,-0.5 1617.5,-0.5"/>
<text text-anchor="start" x="1625.5" y="-18.5" font-family="Helvetica,sans-Serif" font-size="10.00">tests/test_3d_human</text>
<text text-anchor="middle" x="1677" y="-7.5" font-family="Helvetica,sans-Serif" font-size="10.00">_vs_human.cpp</text>
</a>
</g>
</g>
<!-- Node18&#45;&gt;Node21 -->
<g id="edge30" class="edge">
<title>Node18&#45;&gt;Node21</title>
<path fill="none" stroke="midnightblue" d="M1130.14,-67.04C1344.17,-46.56 1400.87,-60.87 1609,-31 1611.75,-30.61 1614.55,-30.16 1617.38,-29.69"/>
<polygon fill="midnightblue" stroke="midnightblue" points="1129.77,-63.56 1120.16,-68.01 1130.45,-70.53 1129.77,-63.56"/>
</g>
<!-- Node22 -->
<g id="node22" class="node">
<title>Node22</title>
<g id="a_node22"><a xlink:href="test__classic__human__vs__human_8cpp.html" target="_top" xlink:title="Unit tests for classic 2D Tic&#45;Tac&#45;Toe mode with two human players.">
<polygon fill="white" stroke="black" points="1216.5,-0.5 1216.5,-30.5 1347.5,-30.5 1347.5,-0.5 1216.5,-0.5"/>
<text text-anchor="start" x="1224.5" y="-18.5" font-family="Helvetica,sans-Serif" font-size="10.00">tests/test_classic</text>
<text text-anchor="middle" x="1282" y="-7.5" font-family="Helvetica,sans-Serif" font-size="10.00">_human_vs_human.cpp</text>
</a>
</g>
</g>
<!-- Node18&#45;&gt;Node22 -->
<g id="edge31" class="edge">
<title>Node18&#45;&gt;Node22</title>
<path fill="none" stroke="midnightblue" d="M1098.32,-64.86C1135.22,-55.14 1188.92,-41.01 1228.74,-30.52"/>
<polygon fill="midnightblue" stroke="midnightblue" points="1097.16,-61.54 1088.38,-67.48 1098.94,-68.31 1097.16,-61.54"/>
</g>
<!-- Node23&#45;&gt;Node3 -->
<g id="edge35" class="edge">
<title>Node23&#45;&gt;Node3</title>
<path fill="none" stroke="midnightblue" d="M1227.95,-122.94C1067.99,-102.81 891.19,-88.35 805.24,-81.82"/>
<polygon fill="midnightblue" stroke="midnightblue" points="1227.62,-126.43 1237.98,-124.22 1228.5,-119.48 1227.62,-126.43"/>
</g>
<!-- Node24 -->
<g id="node24" class="node">
<title>Node24</title>
<g id="a_node24"><a xlink:href="Game_8h.html" target="_top" xlink:title="Header file for the Game class.">
<polygon fill="white" stroke="black" points="1138.5,-67.5 1138.5,-86.5 1231.5,-86.5 1231.5,-67.5 1138.5,-67.5"/>
<text text-anchor="middle" x="1185" y="-74.5" font-family="Helvetica,sans-Serif" font-size="10.00">include/Game.h</text>
</a>
</g>
</g>
<!-- Node23&#45;&gt;Node24 -->
<g id="edge36" class="edge">
<title>Node23&#45;&gt;Node24</title>
<path fill="none" stroke="midnightblue" d="M1259.91,-118.45C1241.45,-108.48 1216.9,-95.23 1201.03,-86.65"/>
<polygon fill="midnightblue" stroke="midnightblue" points="1258.47,-121.65 1268.93,-123.32 1261.8,-115.49 1258.47,-121.65"/>
</g>
<!-- Node26 -->
<g id="node26" class="node">
<title>Node26</title>
<g id="a_node26"><a xlink:href="HumanPlayer_8h.html" target="_top" xlink:title="Header file for the HumanPlayer class.">
<polygon fill="white" stroke="black" points="1352.5,-67.5 1352.5,-86.5 1481.5,-86.5 1481.5,-67.5 1352.5,-67.5"/>
<text text-anchor="middle" x="1417" y="-74.5" font-family="Helvetica,sans-Serif" font-size="10.00">include/HumanPlayer.h</text>
</a>
</g>
</g>
<!-- Node23&#45;&gt;Node26 -->
<g id="edge44" class="edge">
<title>Node23&#45;&gt;Node26</title>
<path fill="none" stroke="midnightblue" d="M1315.22,-119.64C1339.99,-109.5 1374.4,-95.43 1396.18,-86.52"/>
<polygon fill="midnightblue" stroke="midnightblue" points="1313.85,-116.42 1305.92,-123.44 1316.5,-122.9 1313.85,-116.42"/>
</g>
<!-- Node28 -->
<g id="node28" class="node">
<title>Node28</title>
<g id="a_node28"><a xlink:href="Player_8cpp.html" target="_top" xlink:title="Implementation of the Player base class.">
<polygon fill="white" stroke="black" points="1250,-67.5 1250,-86.5 1334,-86.5 1334,-67.5 1250,-67.5"/>
<text text-anchor="middle" x="1292" y="-74.5" font-family="Helvetica,sans-Serif" font-size="10.00">src/Player.cpp</text>
</a>
</g>
</g>
<!-- Node23&#45;&gt;Node28 -->
<g id="edge52" class="edge">
<title>Node23&#45;&gt;Node28</title>
<path fill="none" stroke="midnightblue" d="M1287.45,-113.1C1288.61,-104.14 1289.94,-93.86 1290.87,-86.75"/>
<polygon fill="midnightblue" stroke="midnightblue" points="1283.97,-112.72 1286.16,-123.08 1290.91,-113.62 1283.97,-112.72"/>
</g>
<!-- Node24&#45;&gt;Node5 -->
<g id="edge38" class="edge">
<title>Node24&#45;&gt;Node5</title>
<path fill="none" stroke="midnightblue" d="M1128.34,-67.04C921.84,-43.37 865.23,-67.97 665,-31 657.15,-29.55 648.76,-27.33 641.19,-25.06"/>
<polygon fill="midnightblue" stroke="midnightblue" points="1127.95,-70.51 1138.29,-68.2 1128.76,-63.56 1127.95,-70.51"/>
</g>
<!-- Node24&#45;&gt;Node7 -->
<g id="edge42" class="edge">
<title>Node24&#45;&gt;Node7</title>
<path fill="none" stroke="midnightblue" d="M1128.33,-66.8C1054.64,-54.82 932.82,-34.93 912,-31 902.39,-29.18 892.06,-27.07 882.42,-25.02"/>
<polygon fill="midnightblue" stroke="midnightblue" points="1127.96,-70.29 1138.4,-68.44 1129.09,-63.38 1127.96,-70.29"/>
</g>
<!-- Node24&#45;&gt;Node8 -->
<g id="edge43" class="edge">
<title>Node24&#45;&gt;Node8</title>
<path fill="none" stroke="midnightblue" d="M1147.6,-64.53C1109.89,-52.96 1052.57,-35.38 1018.74,-25.01"/>
<polygon fill="midnightblue" stroke="midnightblue" points="1146.62,-67.89 1157.2,-67.48 1148.67,-61.2 1146.62,-67.89"/>
</g>
<!-- Node24&#45;&gt;Node20 -->
<g id="edge39" class="edge">
<title>Node24&#45;&gt;Node20</title>
<path fill="none" stroke="midnightblue" d="M1241.68,-66.85C1309.08,-55.93 1417.52,-38.25 1458,-31 1468.31,-29.15 1479.4,-27.07 1489.81,-25.06"/>
<polygon fill="midnightblue" stroke="midnightblue" points="1240.96,-63.42 1231.64,-68.47 1242.08,-70.33 1240.96,-63.42"/>
</g>
<!-- Node24&#45;&gt;Node21 -->
<g id="edge40" class="edge">
<title>Node24&#45;&gt;Node21</title>
<path fill="none" stroke="midnightblue" d="M1241.67,-67C1405.69,-46.34 1449.78,-55.68 1609,-31 1611.74,-30.57 1614.54,-30.11 1617.37,-29.61"/>
<polygon fill="midnightblue" stroke="midnightblue" points="1241.2,-63.53 1231.72,-68.27 1242.08,-70.47 1241.2,-63.53"/>
</g>
<!-- Node24&#45;&gt;Node22 -->
<g id="edge41" class="edge">
<title>Node24&#45;&gt;Node22</title>
<path fill="none" stroke="midnightblue" d="M1207.81,-62.01C1223.28,-52.52 1243.66,-40.02 1259.14,-30.52"/>
<polygon fill="midnightblue" stroke="midnightblue" points="1205.59,-59.26 1198.9,-67.48 1209.25,-65.23 1205.59,-59.26"/>
</g>
<!-- Node25 -->
<g id="node25" class="node">
<title>Node25</title>
<g id="a_node25"><a xlink:href="Game_8cpp.html" target="_top" xlink:title="Implementation of the Game class managing the game flow.">
<polygon fill="white" stroke="black" points="1365.5,-6 1365.5,-25 1448.5,-25 1448.5,-6 1365.5,-6"/>
<text text-anchor="middle" x="1407" y="-13" font-family="Helvetica,sans-Serif" font-size="10.00">src/Game.cpp</text>
</a>
</g>
</g>
<!-- Node24&#45;&gt;Node25 -->
<g id="edge37" class="edge">
<title>Node24&#45;&gt;Node25</title>
<path fill="none" stroke="midnightblue" d="M1228.53,-64.95C1263.36,-56.03 1313.4,-43.02 1357,-31 1363.8,-29.13 1371.09,-27.05 1377.95,-25.06"/>
<polygon fill="midnightblue" stroke="midnightblue" points="1227.51,-61.6 1218.69,-67.47 1229.24,-68.38 1227.51,-61.6"/>
</g>
<!-- Node26&#45;&gt;Node5 -->
<g id="edge46" class="edge">
<title>Node26&#45;&gt;Node5</title>
<path fill="none" stroke="midnightblue" d="M1342.09,-67C1040.56,-41.69 959.05,-81.59 665,-31 656.96,-29.62 648.37,-27.35 640.66,-25.02"/>
<polygon fill="midnightblue" stroke="midnightblue" points="1342.19,-70.52 1352.45,-67.89 1342.79,-63.55 1342.19,-70.52"/>
</g>
<!-- Node26&#45;&gt;Node7 -->
<g id="edge50" class="edge">
<title>Node26&#45;&gt;Node7</title>
<path fill="none" stroke="midnightblue" d="M1342.29,-66.97C1150.04,-47.78 1098.91,-58.62 912,-31 901.49,-29.45 890.17,-27.25 879.84,-25.03"/>
<polygon fill="midnightblue" stroke="midnightblue" points="1342.14,-70.48 1352.44,-68 1342.85,-63.51 1342.14,-70.48"/>
</g>
<!-- Node26&#45;&gt;Node8 -->
<g id="edge51" class="edge">
<title>Node26&#45;&gt;Node8</title>
<path fill="none" stroke="midnightblue" d="M1342.25,-66.72C1256.64,-56.02 1121.67,-38.88 1071,-31 1059.56,-29.22 1047.24,-27.09 1035.78,-25.02"/>
<polygon fill="midnightblue" stroke="midnightblue" points="1341.83,-70.2 1352.18,-67.96 1342.69,-63.25 1341.83,-70.2"/>
</g>
<!-- Node26&#45;&gt;Node20 -->
<g id="edge47" class="edge">
<title>Node26&#45;&gt;Node20</title>
<path fill="none" stroke="midnightblue" d="M1442.6,-62.87C1465.09,-51.33 1497.13,-34.9 1516.41,-25.01"/>
<polygon fill="midnightblue" stroke="midnightblue" points="1440.92,-59.8 1433.62,-67.48 1444.12,-66.03 1440.92,-59.8"/>
</g>
<!-- Node26&#45;&gt;Node21 -->
<g id="edge48" class="edge">
<title>Node26&#45;&gt;Node21</title>
<path fill="none" stroke="midnightblue" d="M1464.16,-65.21C1507.11,-55.38 1570.73,-40.82 1617.22,-30.18"/>
<polygon fill="midnightblue" stroke="midnightblue" points="1463.22,-61.83 1454.25,-67.48 1464.78,-68.66 1463.22,-61.83"/>
</g>
<!-- Node26&#45;&gt;Node22 -->
<g id="edge49" class="edge">
<title>Node26&#45;&gt;Node22</title>
<path fill="none" stroke="midnightblue" d="M1388.25,-63.33C1366.41,-53.7 1336.38,-40.47 1313.82,-30.52"/>
<polygon fill="midnightblue" stroke="midnightblue" points="1387.1,-66.64 1397.66,-67.48 1389.92,-60.24 1387.1,-66.64"/>
</g>
<!-- Node27 -->
<g id="node27" class="node">
<title>Node27</title>
<g id="a_node27"><a xlink:href="HumanPlayer_8cpp.html" target="_top" xlink:title="Implementation of the HumanPlayer class handling human input.">
<polygon fill="white" stroke="black" points="1754.5,-6 1754.5,-25 1873.5,-25 1873.5,-6 1754.5,-6"/>
<text text-anchor="middle" x="1814" y="-13" font-family="Helvetica,sans-Serif" font-size="10.00">src/HumanPlayer.cpp</text>
</a>
</g>
</g>
<!-- Node26&#45;&gt;Node27 -->
<g id="edge45" class="edge">
<title>Node26&#45;&gt;Node27</title>
<path fill="none" stroke="midnightblue" d="M1492,-66.4C1573.59,-55.84 1698.69,-39.27 1746,-31 1755.87,-29.28 1766.49,-27.14 1776.33,-25.05"/>
<polygon fill="midnightblue" stroke="midnightblue" points="1491.25,-62.97 1481.78,-67.72 1492.15,-69.91 1491.25,-62.97"/>
</g>
<!-- Node30&#45;&gt;Node23 -->
<g id="edge55" class="edge">
<title>Node30&#45;&gt;Node23</title>
<path fill="none" stroke="midnightblue" d="M999.87,-226.3C1009.22,-211.25 1024.7,-190.34 1044,-179 1052.33,-174.11 1169.99,-153.53 1237.76,-141.97"/>
<polygon fill="midnightblue" stroke="midnightblue" points="996.7,-224.79 994.63,-235.18 1002.72,-228.35 996.7,-224.79"/>
</g>
<!-- Node31 -->
<g id="node31" class="node">
<title>Node31</title>
<g id="a_node31"><a xlink:href="Board_8cpp.html" target="_top" xlink:title="Implementation of the Board class representing the game board.">
<polygon fill="white" stroke="black" points="913.5,-179.5 913.5,-198.5 996.5,-198.5 996.5,-179.5 913.5,-179.5"/>
<text text-anchor="middle" x="955" y="-186.5" font-family="Helvetica,sans-Serif" font-size="10.00">src/Board.cpp</text>
</a>
</g>
</g>
<!-- Node30&#45;&gt;Node31 -->
<g id="edge56" class="edge">
<title>Node30&#45;&gt;Node31</title>
<path fill="none" stroke="midnightblue" d="M978.7,-226.57C972.68,-217.27 965.53,-206.25 960.67,-198.75"/>
<polygon fill="midnightblue" stroke="midnightblue" points="975.84,-228.6 984.22,-235.08 981.72,-224.79 975.84,-228.6"/>
</g>
<!-- Node32 -->
<g id="node32" class="node">
<title>Node32</title>
<g id="a_node32"><a xlink:href="Board3D_8cpp.html" target="_top" xlink:title="Implementation of the Board3D class representing a 3D tic&#45;tac&#45;toe board.">
<polygon fill="white" stroke="black" points="700,-179.5 700,-198.5 796,-198.5 796,-179.5 700,-179.5"/>
<text text-anchor="middle" x="748" y="-186.5" font-family="Helvetica,sans-Serif" font-size="10.00">src/Board3D.cpp</text>
</a>
</g>
</g>
<!-- Node30&#45;&gt;Node32 -->
<g id="edge57" class="edge">
<title>Node30&#45;&gt;Node32</title>
<path fill="none" stroke="midnightblue" d="M941.68,-233.22C895.95,-223.01 828.22,-207.9 786.17,-198.52"/>
<polygon fill="midnightblue" stroke="midnightblue" points="941.13,-236.68 951.65,-235.44 942.66,-229.85 941.13,-236.68"/>
</g>
<!-- Node33 -->
<g id="node33" class="node">
<title>Node33</title>
<g id="a_node33"><a xlink:href="Move_8cpp.html" target="_top" xlink:title="Implementation of the Move class representing a player&#39;s move.">
<polygon fill="white" stroke="black" points="814.5,-179.5 814.5,-198.5 895.5,-198.5 895.5,-179.5 814.5,-179.5"/>
<text text-anchor="middle" x="855" y="-186.5" font-family="Helvetica,sans-Serif" font-size="10.00">src/Move.cpp</text>
</a>
</g>
</g>
<!-- Node30&#45;&gt;Node33 -->
<g id="edge58" class="edge">
<title>Node30&#45;&gt;Node33</title>
<path fill="none" stroke="midnightblue" d="M959.09,-231.64C933.76,-221.5 898.57,-207.43 876.29,-198.52"/>
<polygon fill="midnightblue" stroke="midnightblue" points="958.02,-234.98 968.61,-235.44 960.62,-228.48 958.02,-234.98"/>
</g>
<!-- Node30&#45;&gt;Node34 -->
<g id="edge59" class="edge">
<title>Node30&#45;&gt;Node34</title>
<path fill="none" stroke="midnightblue" d="M1018.31,-231.37C1040.97,-221.26 1072.13,-207.35 1091.92,-198.52"/>
<polygon fill="midnightblue" stroke="midnightblue" points="1016.88,-228.17 1009.17,-235.44 1019.73,-234.56 1016.88,-228.17"/>
</g>
<!-- Node35&#45;&gt;Node17 -->
<g id="edge61" class="edge">
<title>Node35&#45;&gt;Node17</title>
<path fill="none" stroke="midnightblue" d="M1309.43,-229.62C1294.64,-219.76 1275.49,-206.99 1262.98,-198.65"/>
<polygon fill="midnightblue" stroke="midnightblue" points="1307.72,-232.69 1317.99,-235.32 1311.61,-226.86 1307.72,-232.69"/>
</g>
<!-- Node35&#45;&gt;Node23 -->
<g id="edge62" class="edge">
<title>Node35&#45;&gt;Node23</title>
<path fill="none" stroke="midnightblue" d="M1331.06,-224.83C1330.47,-211.48 1328.36,-193.53 1322,-179 1315.67,-164.55 1303.31,-151 1294.63,-142.62"/>
<polygon fill="midnightblue" stroke="midnightblue" points="1327.57,-225.25 1331.27,-235.18 1334.57,-225.11 1327.57,-225.25"/>
</g>
<!-- Node35&#45;&gt;Node36 -->
<g id="edge63" class="edge">
<title>Node35&#45;&gt;Node36</title>
<path fill="none" stroke="midnightblue" d="M1344.08,-227.27C1362.67,-203.49 1396.06,-160.79 1410.28,-142.59"/>
<polygon fill="midnightblue" stroke="midnightblue" points="1341.15,-225.33 1337.75,-235.37 1346.66,-229.65 1341.15,-225.33"/>
</g>
<!-- Node36&#45;&gt;Node18 -->
<g id="edge64" class="edge">
<title>Node36&#45;&gt;Node18</title>
<path fill="none" stroke="midnightblue" d="M1353.18,-122.45C1285.09,-112.27 1178.25,-96.29 1112.93,-86.52"/>
<polygon fill="midnightblue" stroke="midnightblue" points="1352.94,-125.96 1363.34,-123.97 1353.97,-119.03 1352.94,-125.96"/>
</g>
<!-- Node36&#45;&gt;Node26 -->
<g id="edge65" class="edge">
<title>Node36&#45;&gt;Node26</title>
<path fill="none" stroke="midnightblue" d="M1417,-112.8C1417,-103.91 1417,-93.78 1417,-86.75"/>
<polygon fill="midnightblue" stroke="midnightblue" points="1413.5,-113.08 1417,-123.08 1420.5,-113.08 1413.5,-113.08"/>
</g>
<!-- Node37 -->
<g id="node37" class="node">
<title>Node37</title>
<g id="a_node37"><a xlink:href="Validator_8cpp.html" target="_top" xlink:title="Implementation of the Validator class for validating user input.">
<polygon fill="white" stroke="black" points="1499.5,-67.5 1499.5,-86.5 1596.5,-86.5 1596.5,-67.5 1499.5,-67.5"/>
<text text-anchor="middle" x="1548" y="-74.5" font-family="Helvetica,sans-Serif" font-size="10.00">src/Validator.cpp</text>
</a>
</g>
</g>
<!-- Node36&#45;&gt;Node37 -->
<g id="edge66" class="edge">
<title>Node36&#45;&gt;Node37</title>
<path fill="none" stroke="midnightblue" d="M1447.32,-119.5C1471.88,-109.38 1505.82,-95.39 1527.34,-86.52"/>
<polygon fill="midnightblue" stroke="midnightblue" points="1445.67,-116.4 1437.76,-123.44 1448.34,-122.87 1445.67,-116.4"/>
</g>
<!-- Node38 -->
<g id="node38" class="node">
<title>Node38</title>
<g id="a_node38"><a xlink:href="test__validator_8cpp.html" target="_top" xlink:title="Unit tests for the Validator class.">
<polygon fill="white" stroke="black" points="1614.5,-67.5 1614.5,-86.5 1745.5,-86.5 1745.5,-67.5 1614.5,-67.5"/>
<text text-anchor="middle" x="1680" y="-74.5" font-family="Helvetica,sans-Serif" font-size="10.00">tests/test_validator.cpp</text>
</a>
</g>
</g>
<!-- Node36&#45;&gt;Node38 -->
<g id="edge67" class="edge">
<title>Node36&#45;&gt;Node38</title>
<path fill="none" stroke="midnightblue" d="M1468.58,-121.41C1518.28,-111.2 1592.53,-95.96 1638.52,-86.52"/>
<polygon fill="midnightblue" stroke="midnightblue" points="1467.76,-118 1458.67,-123.44 1469.17,-124.86 1467.76,-118"/>
</g>
</g>
</svg>
