<?xml version="1.0" encoding="UTF-8" standalone="no"?>
<!DOCTYPE svg PUBLIC "-//W3C//DTD SVG 1.1//EN"
 "http://www.w3.org/Graphics/SVG/1.1/DTD/svg11.dtd">
<!-- Generated by graphviz version 2.43.0 (0)
 -->
<!-- Title: TEST Pages: 1 -->
<svg width="503pt" height="104pt"
 viewBox="0.00 0.00 503.00 104.00" xmlns="http://www.w3.org/2000/svg" xmlns:xlink="http://www.w3.org/1999/xlink">
<g id="graph0" class="graph" transform="scale(1 1) rotate(0) translate(4 100)">
<title>TEST</title>
<polygon fill="white" stroke="transparent" points="-4,4 -4,-100 499,-100 499,4 -4,4"/>
<!-- Node1 -->
<g id="node1" class="node">
<title>Node1</title>
<g id="a_node1"><a xlink:title="Test draw condition detection when the board is full with no winner.">
<polygon fill="#bfbfbf" stroke="black" points="0,-38.5 0,-57.5 41,-57.5 41,-38.5 0,-38.5"/>
<text text-anchor="middle" x="20.5" y="-45.5" font-family="Helvetica,sans-Serif" font-size="10.00">TEST</text>
</a>
</g>
</g>
<!-- Node2 -->
<g id="node2" class="node">
<title>Node2</title>
<g id="a_node2"><a xlink:href="classGameRules.html#a6d5f3424222807a9998d4c022f668b3d" target="_top" xlink:title="Checks if the game ended in a draw.">
<polygon fill="white" stroke="black" points="77,-38.5 77,-57.5 210,-57.5 210,-38.5 77,-38.5"/>
<text text-anchor="middle" x="143.5" y="-45.5" font-family="Helvetica,sans-Serif" font-size="10.00">GameRules::checkDraw</text>
</a>
</g>
</g>
<!-- Node1&#45;&gt;Node2 -->
<g id="edge1" class="edge">
<title>Node1&#45;&gt;Node2</title>
<path fill="none" stroke="midnightblue" d="M41.21,-48C48.54,-48 57.36,-48 66.7,-48"/>
<polygon fill="midnightblue" stroke="midnightblue" points="67,-51.5 77,-48 67,-44.5 67,-51.5"/>
</g>
<!-- Node3 -->
<g id="node3" class="node">
<title>Node3</title>
<g id="a_node3"><a xlink:href="classGameRules.html#aac69246a5d92996b2c43676f795d58d9" target="_top" xlink:title="Checks if the specified player has won.">
<polygon fill="white" stroke="black" points="246,-76.5 246,-95.5 372,-95.5 372,-76.5 246,-76.5"/>
<text text-anchor="middle" x="309" y="-83.5" font-family="Helvetica,sans-Serif" font-size="10.00">GameRules::checkWin</text>
</a>
</g>
</g>
<!-- Node1&#45;&gt;Node3 -->
<g id="edge5" class="edge">
<title>Node1&#45;&gt;Node3</title>
<path fill="none" stroke="midnightblue" d="M41.2,-56.08C51.66,-60.02 64.84,-64.46 77,-67 129.37,-77.94 189.64,-82.64 235.49,-84.63"/>
<polygon fill="midnightblue" stroke="midnightblue" points="235.5,-88.14 245.63,-85.04 235.78,-81.14 235.5,-88.14"/>
</g>
<!-- Node6 -->
<g id="node6" class="node">
<title>Node6</title>
<g id="a_node6"><a xlink:href="classBoard.html#adcafb7f3909732ea0043c829b91e7e2d" target="_top" xlink:title="Sets the cell value at the specified position.">
<polygon fill="white" stroke="black" points="101,-0.5 101,-19.5 186,-19.5 186,-0.5 101,-0.5"/>
<text text-anchor="middle" x="143.5" y="-7.5" font-family="Helvetica,sans-Serif" font-size="10.00">Board::setCell</text>
</a>
</g>
</g>
<!-- Node1&#45;&gt;Node6 -->
<g id="edge6" class="edge">
<title>Node1&#45;&gt;Node6</title>
<path fill="none" stroke="midnightblue" d="M41.2,-41C51.78,-37.31 65.06,-32.77 77,-29 83.99,-26.79 91.42,-24.54 98.68,-22.4"/>
<polygon fill="midnightblue" stroke="midnightblue" points="99.79,-25.72 108.41,-19.56 97.83,-19 99.79,-25.72"/>
</g>
<!-- Node2&#45;&gt;Node3 -->
<g id="edge2" class="edge">
<title>Node2&#45;&gt;Node3</title>
<path fill="none" stroke="midnightblue" d="M185.76,-57.59C207.43,-62.63 234.18,-68.84 257.13,-74.18"/>
<polygon fill="midnightblue" stroke="midnightblue" points="256.51,-77.63 267.04,-76.48 258.09,-70.81 256.51,-77.63"/>
</g>
<!-- Node5 -->
<g id="node5" class="node">
<title>Node5</title>
<g id="a_node5"><a xlink:href="classBoard.html#aea604144c08c8442221b4a619d47db94" target="_top" xlink:title="Checks if the board is completely filled.">
<polygon fill="white" stroke="black" points="270.5,-38.5 270.5,-57.5 347.5,-57.5 347.5,-38.5 270.5,-38.5"/>
<text text-anchor="middle" x="309" y="-45.5" font-family="Helvetica,sans-Serif" font-size="10.00">Board::isFull</text>
</a>
</g>
</g>
<!-- Node2&#45;&gt;Node5 -->
<g id="edge4" class="edge">
<title>Node2&#45;&gt;Node5</title>
<path fill="none" stroke="midnightblue" d="M210.06,-48C226.66,-48 244.19,-48 259.76,-48"/>
<polygon fill="midnightblue" stroke="midnightblue" points="260.19,-51.5 270.19,-48 260.19,-44.5 260.19,-51.5"/>
</g>
<!-- Node4 -->
<g id="node4" class="node">
<title>Node4</title>
<g id="a_node4"><a xlink:href="classBoard.html#a16cdb8eaec4202fe7df18d6ca23a3f1d" target="_top" xlink:title="Returns the entire grid as a 2D vector.">
<polygon fill="white" stroke="black" points="408,-76.5 408,-95.5 495,-95.5 495,-76.5 408,-76.5"/>
<text text-anchor="middle" x="451.5" y="-83.5" font-family="Helvetica,sans-Serif" font-size="10.00">Board::getGrid</text>
</a>
</g>
</g>
<!-- Node3&#45;&gt;Node4 -->
<g id="edge3" class="edge">
<title>Node3&#45;&gt;Node4</title>
<path fill="none" stroke="midnightblue" d="M372.03,-86C380.61,-86 389.34,-86 397.72,-86"/>
<polygon fill="midnightblue" stroke="midnightblue" points="397.74,-89.5 407.74,-86 397.74,-82.5 397.74,-89.5"/>
</g>
<!-- Node7 -->
<g id="node7" class="node">
<title>Node7</title>
<g id="a_node7"><a xlink:href="classBoard.html#a73d6e27fbfbbf73db8c3a532f2d42171" target="_top" xlink:title="Checks if the given position is valid on the board.">
<polygon fill="white" stroke="black" points="248,-0.5 248,-19.5 370,-19.5 370,-0.5 248,-0.5"/>
<text text-anchor="middle" x="309" y="-7.5" font-family="Helvetica,sans-Serif" font-size="10.00">Board::isValidPosition</text>
</a>
</g>
</g>
<!-- Node6&#45;&gt;Node7 -->
<g id="edge7" class="edge">
<title>Node6&#45;&gt;Node7</title>
<path fill="none" stroke="midnightblue" d="M186.18,-10C201.84,-10 220.11,-10 237.66,-10"/>
<polygon fill="midnightblue" stroke="midnightblue" points="237.88,-13.5 247.88,-10 237.88,-6.5 237.88,-13.5"/>
</g>
</g>
</svg>
